ISO-10303-21;
HEADER;
/* Generated by software containing ST-Developer
 * from STEP Tools, Inc. (www.steptools.com) 
 */

FILE_DESCRIPTION(
/* description */ (''),
/* implementation_level */ '2;1');

FILE_NAME(
/* name */ 'SURREPTOR_front_wheel.step',
/* time_stamp */ '2026-10-06T16:28:30+03:00',
/* author */ (''),
/* organization */ (''),
/* preprocessor_version */ 'ST-DEVELOPER v20.2',
/* originating_system */ 'Autodesk Translation Framework v15.15.0.0',
/* authorisation */ '');

FILE_SCHEMA (('AUTOMOTIVE_DESIGN { 1 0 10303 214 3 1 1 }'));
ENDSEC;

DATA;
#10=MECHANICAL_DESIGN_GEOMETRIC_PRESENTATION_REPRESENTATION('',(#13),#441);
#11=SHAPE_REPRESENTATION_RELATIONSHIP('SRR','None',#448,#12);
#12=ADVANCED_BREP_SHAPE_REPRESENTATION('',(#14),#440);
#13=STYLED_ITEM('',(#457),#14);
#14=MANIFOLD_SOLID_BREP('Body1',#155);
#15=TOROIDAL_SURFACE('',#183,14.7928932188135,0.5);
#16=TOROIDAL_SURFACE('',#189,14.7928932188135,0.500000000000001);
#17=CONICAL_SURFACE('',#181,14.0732233047034,0.785398163397449);
#18=CONICAL_SURFACE('',#192,14.0732233047034,0.785398163397449);
#19=(
BOUNDED_CURVE()
B_SPLINE_CURVE(5,(#399,#400,#401,#402,#403,#404,#405,#406,#407,#408,#409,
#410,#411,#412,#413),.UNSPECIFIED.,.F.,.F.)
B_SPLINE_CURVE_WITH_KNOTS((6,1,1,1,1,1,1,1,1,1,6),(0.,0.1,0.2,0.3,0.4,0.5,
0.6,0.7,0.8,0.9,1.),.UNSPECIFIED.)
CURVE()
GEOMETRIC_REPRESENTATION_ITEM()
RATIONAL_B_SPLINE_CURVE((1.,1.,1.,1.,1.,1.,1.,1.,1.,1.,1.,1.,1.,1.,1.))
REPRESENTATION_ITEM('')
);
#20=(
BOUNDED_SURFACE()
B_SPLINE_SURFACE(5,2,((#262,#263,#264,#265,#266,#267,#268,#269,#270),(#271,
#272,#273,#274,#275,#276,#277,#278,#279),(#280,#281,#282,#283,#284,#285,
#286,#287,#288),(#289,#290,#291,#292,#293,#294,#295,#296,#297),(#298,#299,
#300,#301,#302,#303,#304,#305,#306),(#307,#308,#309,#310,#311,#312,#313,
#314,#315),(#316,#317,#318,#319,#320,#321,#322,#323,#324),(#325,#326,#327,
#328,#329,#330,#331,#332,#333),(#334,#335,#336,#337,#338,#339,#340,#341,
#342),(#343,#344,#345,#346,#347,#348,#349,#350,#351),(#352,#353,#354,#355,
#356,#357,#358,#359,#360),(#361,#362,#363,#364,#365,#366,#367,#368,#369),
(#370,#371,#372,#373,#374,#375,#376,#377,#378),(#379,#380,#381,#382,#383,
#384,#385,#386,#387),(#388,#389,#390,#391,#392,#393,#394,#395,#396)),
 .UNSPECIFIED.,.F.,.T.,.F.)
B_SPLINE_SURFACE_WITH_KNOTS((6,1,1,1,1,1,1,1,1,1,6),(3,2,2,2,3),(-1.,-0.9,
-0.8,-0.7,-0.6,-0.5,-0.4,-0.3,-0.2,-0.1,0.),(0.,1.5707963267949,3.14159265358979,
4.71238898038469,6.28318530717959),.UNSPECIFIED.)
GEOMETRIC_REPRESENTATION_ITEM()
RATIONAL_B_SPLINE_SURFACE(((1.,0.707106781186548,1.,0.707106781186548,1.,
0.707106781186548,1.,0.707106781186548,1.),(1.,0.707106781186548,1.,0.707106781186548,
1.,0.707106781186548,1.,0.707106781186548,1.),(1.,0.707106781186548,1.,
0.707106781186548,1.,0.707106781186548,1.,0.707106781186548,1.),(1.,0.707106781186548,
1.,0.707106781186548,1.,0.707106781186548,1.,0.707106781186548,1.),(1.,
0.707106781186548,1.,0.707106781186548,1.,0.707106781186548,1.,0.707106781186548,
1.),(1.,0.707106781186548,1.,0.707106781186548,1.,0.707106781186548,1.,
0.707106781186548,1.),(1.,0.707106781186548,1.,0.707106781186548,1.,0.707106781186548,
1.,0.707106781186548,1.),(1.,0.707106781186548,1.,0.707106781186548,1.,
0.707106781186548,1.,0.707106781186548,1.),(1.,0.707106781186548,1.,0.707106781186548,
1.,0.707106781186548,1.,0.707106781186548,1.),(1.,0.707106781186548,1.,
0.707106781186548,1.,0.707106781186548,1.,0.707106781186548,1.),(1.,0.707106781186548,
1.,0.707106781186548,1.,0.707106781186548,1.,0.707106781186548,1.),(1.,
0.707106781186548,1.,0.707106781186548,1.,0.707106781186548,1.,0.707106781186548,
1.),(1.,0.707106781186548,1.,0.707106781186548,1.,0.707106781186548,1.,
0.707106781186548,1.),(1.,0.707106781186548,1.,0.707106781186548,1.,0.707106781186548,
1.,0.707106781186548,1.),(1.,0.707106781186548,1.,0.707106781186548,1.,
0.707106781186548,1.,0.707106781186548,1.)))
REPRESENTATION_ITEM('')
SURFACE()
);
#21=FACE_BOUND('',#42,.T.);
#22=FACE_BOUND('',#47,.T.);
#23=PLANE('',#172);
#24=PLANE('',#176);
#25=PLANE('',#186);
#26=PLANE('',#187);
#27=FACE_OUTER_BOUND('',#38,.T.);
#28=FACE_OUTER_BOUND('',#39,.T.);
#29=FACE_OUTER_BOUND('',#40,.T.);
#30=FACE_OUTER_BOUND('',#41,.T.);
#31=FACE_OUTER_BOUND('',#43,.T.);
#32=FACE_OUTER_BOUND('',#44,.T.);
#33=FACE_OUTER_BOUND('',#45,.T.);
#34=FACE_OUTER_BOUND('',#46,.T.);
#35=FACE_OUTER_BOUND('',#48,.T.);
#36=FACE_OUTER_BOUND('',#49,.T.);
#37=FACE_OUTER_BOUND('',#50,.T.);
#38=EDGE_LOOP('',(#104,#105,#106,#107));
#39=EDGE_LOOP('',(#108));
#40=EDGE_LOOP('',(#109,#110,#111,#112));
#41=EDGE_LOOP('',(#113));
#42=EDGE_LOOP('',(#114));
#43=EDGE_LOOP('',(#115,#116,#117,#118,#119,#120));
#44=EDGE_LOOP('',(#121,#122,#123,#124,#125));
#45=EDGE_LOOP('',(#126,#127,#128,#129));
#46=EDGE_LOOP('',(#130));
#47=EDGE_LOOP('',(#131));
#48=EDGE_LOOP('',(#132));
#49=EDGE_LOOP('',(#133,#134,#135,#136));
#50=EDGE_LOOP('',(#137,#138,#139,#140,#141));
#51=LINE('',#252,#55);
#52=LINE('',#259,#56);
#53=LINE('',#423,#57);
#54=LINE('',#437,#58);
#55=VECTOR('',#199,8.);
#56=VECTOR('',#208,11.1);
#57=VECTOR('',#225,14.0732233047034);
#58=VECTOR('',#246,14.0732233047034);
#59=CIRCLE('',#170,8.);
#60=CIRCLE('',#171,8.);
#61=CIRCLE('',#174,11.1);
#62=CIRCLE('',#175,11.1);
#63=CIRCLE('',#177,13.);
#64=CIRCLE('',#178,13.);
#65=CIRCLE('',#179,13.);
#66=CIRCLE('',#180,13.);
#67=CIRCLE('',#182,15.1464466094067);
#68=CIRCLE('',#184,14.7928932188135);
#69=CIRCLE('',#185,0.5);
#70=CIRCLE('',#188,14.7928932188135);
#71=CIRCLE('',#190,15.1464466094067);
#72=CIRCLE('',#191,0.500000000000001);
#73=VERTEX_POINT('',#249);
#74=VERTEX_POINT('',#251);
#75=VERTEX_POINT('',#256);
#76=VERTEX_POINT('',#258);
#77=VERTEX_POINT('',#397);
#78=VERTEX_POINT('',#398);
#79=VERTEX_POINT('',#414);
#80=VERTEX_POINT('',#417);
#81=VERTEX_POINT('',#421);
#82=VERTEX_POINT('',#425);
#83=VERTEX_POINT('',#430);
#84=VERTEX_POINT('',#433);
#85=EDGE_CURVE('',#73,#73,#59,.T.);
#86=EDGE_CURVE('',#73,#74,#51,.T.);
#87=EDGE_CURVE('',#74,#74,#60,.T.);
#88=EDGE_CURVE('',#75,#75,#61,.T.);
#89=EDGE_CURVE('',#75,#76,#52,.T.);
#90=EDGE_CURVE('',#76,#76,#62,.T.);
#91=EDGE_CURVE('',#77,#78,#19,.T.);
#92=EDGE_CURVE('',#77,#79,#63,.T.);
#93=EDGE_CURVE('',#79,#77,#64,.T.);
#94=EDGE_CURVE('',#80,#78,#65,.T.);
#95=EDGE_CURVE('',#78,#80,#66,.T.);
#96=EDGE_CURVE('',#81,#81,#67,.T.);
#97=EDGE_CURVE('',#81,#80,#53,.T.);
#98=EDGE_CURVE('',#82,#82,#68,.T.);
#99=EDGE_CURVE('',#82,#81,#69,.T.);
#100=EDGE_CURVE('',#83,#83,#70,.T.);
#101=EDGE_CURVE('',#84,#84,#71,.T.);
#102=EDGE_CURVE('',#84,#83,#72,.T.);
#103=EDGE_CURVE('',#79,#84,#54,.T.);
#104=ORIENTED_EDGE('',*,*,#85,.F.);
#105=ORIENTED_EDGE('',*,*,#86,.T.);
#106=ORIENTED_EDGE('',*,*,#87,.T.);
#107=ORIENTED_EDGE('',*,*,#86,.F.);
#108=ORIENTED_EDGE('',*,*,#87,.F.);
#109=ORIENTED_EDGE('',*,*,#88,.F.);
#110=ORIENTED_EDGE('',*,*,#89,.T.);
#111=ORIENTED_EDGE('',*,*,#90,.T.);
#112=ORIENTED_EDGE('',*,*,#89,.F.);
#113=ORIENTED_EDGE('',*,*,#90,.F.);
#114=ORIENTED_EDGE('',*,*,#85,.T.);
#115=ORIENTED_EDGE('',*,*,#91,.F.);
#116=ORIENTED_EDGE('',*,*,#92,.T.);
#117=ORIENTED_EDGE('',*,*,#93,.T.);
#118=ORIENTED_EDGE('',*,*,#91,.T.);
#119=ORIENTED_EDGE('',*,*,#94,.F.);
#120=ORIENTED_EDGE('',*,*,#95,.F.);
#121=ORIENTED_EDGE('',*,*,#96,.F.);
#122=ORIENTED_EDGE('',*,*,#97,.T.);
#123=ORIENTED_EDGE('',*,*,#94,.T.);
#124=ORIENTED_EDGE('',*,*,#95,.T.);
#125=ORIENTED_EDGE('',*,*,#97,.F.);
#126=ORIENTED_EDGE('',*,*,#98,.F.);
#127=ORIENTED_EDGE('',*,*,#99,.T.);
#128=ORIENTED_EDGE('',*,*,#96,.T.);
#129=ORIENTED_EDGE('',*,*,#99,.F.);
#130=ORIENTED_EDGE('',*,*,#98,.T.);
#131=ORIENTED_EDGE('',*,*,#88,.T.);
#132=ORIENTED_EDGE('',*,*,#100,.F.);
#133=ORIENTED_EDGE('',*,*,#101,.F.);
#134=ORIENTED_EDGE('',*,*,#102,.T.);
#135=ORIENTED_EDGE('',*,*,#100,.T.);
#136=ORIENTED_EDGE('',*,*,#102,.F.);
#137=ORIENTED_EDGE('',*,*,#92,.F.);
#138=ORIENTED_EDGE('',*,*,#93,.F.);
#139=ORIENTED_EDGE('',*,*,#103,.T.);
#140=ORIENTED_EDGE('',*,*,#101,.T.);
#141=ORIENTED_EDGE('',*,*,#103,.F.);
#142=CYLINDRICAL_SURFACE('',#169,8.);
#143=CYLINDRICAL_SURFACE('',#173,11.1);
#144=ADVANCED_FACE('',(#27),#142,.F.);
#145=ADVANCED_FACE('',(#28),#23,.T.);
#146=ADVANCED_FACE('',(#29),#143,.F.);
#147=ADVANCED_FACE('',(#30,#21),#24,.T.);
#148=ADVANCED_FACE('',(#31),#20,.T.);
#149=ADVANCED_FACE('',(#32),#17,.T.);
#150=ADVANCED_FACE('',(#33),#15,.T.);
#151=ADVANCED_FACE('',(#34,#22),#25,.T.);
#152=ADVANCED_FACE('',(#35),#26,.T.);
#153=ADVANCED_FACE('',(#36),#16,.T.);
#154=ADVANCED_FACE('',(#37),#18,.T.);
#155=CLOSED_SHELL('',(#144,#145,#146,#147,#148,#149,#150,#151,#152,#153,
#154));
#156=DERIVED_UNIT_ELEMENT(#158,1.);
#157=DERIVED_UNIT_ELEMENT(#443,-3.);
#158=(
MASS_UNIT()
NAMED_UNIT(*)
SI_UNIT(.KILO.,.GRAM.)
);
#159=DERIVED_UNIT((#156,#157));
#160=MEASURE_REPRESENTATION_ITEM('density measure',
POSITIVE_RATIO_MEASURE(7850.),#159);
#161=PROPERTY_DEFINITION_REPRESENTATION(#166,#163);
#162=PROPERTY_DEFINITION_REPRESENTATION(#167,#164);
#163=REPRESENTATION('material name',(#165),#440);
#164=REPRESENTATION('density',(#160),#440);
#165=DESCRIPTIVE_REPRESENTATION_ITEM('Steel','Steel');
#166=PROPERTY_DEFINITION('material property','material name',#450);
#167=PROPERTY_DEFINITION('material property','density of part',#450);
#168=AXIS2_PLACEMENT_3D('',#247,#193,#194);
#169=AXIS2_PLACEMENT_3D('',#248,#195,#196);
#170=AXIS2_PLACEMENT_3D('',#250,#197,#198);
#171=AXIS2_PLACEMENT_3D('',#253,#200,#201);
#172=AXIS2_PLACEMENT_3D('',#254,#202,#203);
#173=AXIS2_PLACEMENT_3D('',#255,#204,#205);
#174=AXIS2_PLACEMENT_3D('',#257,#206,#207);
#175=AXIS2_PLACEMENT_3D('',#260,#209,#210);
#176=AXIS2_PLACEMENT_3D('',#261,#211,#212);
#177=AXIS2_PLACEMENT_3D('',#415,#213,#214);
#178=AXIS2_PLACEMENT_3D('',#416,#215,#216);
#179=AXIS2_PLACEMENT_3D('',#418,#217,#218);
#180=AXIS2_PLACEMENT_3D('',#419,#219,#220);
#181=AXIS2_PLACEMENT_3D('',#420,#221,#222);
#182=AXIS2_PLACEMENT_3D('',#422,#223,#224);
#183=AXIS2_PLACEMENT_3D('',#424,#226,#227);
#184=AXIS2_PLACEMENT_3D('',#426,#228,#229);
#185=AXIS2_PLACEMENT_3D('',#427,#230,#231);
#186=AXIS2_PLACEMENT_3D('',#428,#232,#233);
#187=AXIS2_PLACEMENT_3D('',#429,#234,#235);
#188=AXIS2_PLACEMENT_3D('',#431,#236,#237);
#189=AXIS2_PLACEMENT_3D('',#432,#238,#239);
#190=AXIS2_PLACEMENT_3D('',#434,#240,#241);
#191=AXIS2_PLACEMENT_3D('',#435,#242,#243);
#192=AXIS2_PLACEMENT_3D('',#436,#244,#245);
#193=DIRECTION('axis',(0.,0.,1.));
#194=DIRECTION('refdir',(1.,0.,0.));
#195=DIRECTION('center_axis',(0.,0.,-1.));
#196=DIRECTION('ref_axis',(-1.,0.,0.));
#197=DIRECTION('center_axis',(0.,0.,-1.));
#198=DIRECTION('ref_axis',(-1.,0.,0.));
#199=DIRECTION('',(0.,0.,-1.));
#200=DIRECTION('center_axis',(0.,0.,-1.));
#201=DIRECTION('ref_axis',(-1.,0.,0.));
#202=DIRECTION('center_axis',(0.,0.,1.));
#203=DIRECTION('ref_axis',(-1.,0.,0.));
#204=DIRECTION('center_axis',(0.,0.,-1.));
#205=DIRECTION('ref_axis',(-1.,0.,0.));
#206=DIRECTION('center_axis',(0.,0.,-1.));
#207=DIRECTION('ref_axis',(-1.,0.,0.));
#208=DIRECTION('',(0.,0.,-1.));
#209=DIRECTION('center_axis',(0.,0.,-1.));
#210=DIRECTION('ref_axis',(-1.,0.,0.));
#211=DIRECTION('center_axis',(0.,0.,1.));
#212=DIRECTION('ref_axis',(-1.,0.,0.));
#213=DIRECTION('center_axis',(0.,0.,1.));
#214=DIRECTION('ref_axis',(1.,0.,0.));
#215=DIRECTION('center_axis',(0.,0.,1.));
#216=DIRECTION('ref_axis',(1.,0.,0.));
#217=DIRECTION('center_axis',(0.,0.,1.));
#218=DIRECTION('ref_axis',(1.,0.,0.));
#219=DIRECTION('center_axis',(0.,0.,1.));
#220=DIRECTION('ref_axis',(1.,0.,0.));
#221=DIRECTION('center_axis',(0.,0.,1.));
#222=DIRECTION('ref_axis',(1.,0.,0.));
#223=DIRECTION('center_axis',(0.,0.,1.));
#224=DIRECTION('ref_axis',(1.,0.,0.));
#225=DIRECTION('',(0.707106781186548,8.65956056235494E-17,-0.707106781186547));
#226=DIRECTION('center_axis',(0.,0.,1.));
#227=DIRECTION('ref_axis',(1.,0.,0.));
#228=DIRECTION('center_axis',(0.,0.,1.));
#229=DIRECTION('ref_axis',(1.,0.,0.));
#230=DIRECTION('center_axis',(1.22464679914735E-16,-1.,0.));
#231=DIRECTION('ref_axis',(-1.,-1.22464679914735E-16,0.));
#232=DIRECTION('center_axis',(0.,0.,1.));
#233=DIRECTION('ref_axis',(1.,0.,0.));
#234=DIRECTION('center_axis',(0.,0.,-1.));
#235=DIRECTION('ref_axis',(-1.,0.,0.));
#236=DIRECTION('center_axis',(0.,0.,1.));
#237=DIRECTION('ref_axis',(1.,0.,0.));
#238=DIRECTION('center_axis',(0.,0.,1.));
#239=DIRECTION('ref_axis',(1.,0.,0.));
#240=DIRECTION('center_axis',(0.,0.,1.));
#241=DIRECTION('ref_axis',(1.,0.,0.));
#242=DIRECTION('center_axis',(1.22464679914735E-16,-1.,0.));
#243=DIRECTION('ref_axis',(-1.,-1.22464679914735E-16,0.));
#244=DIRECTION('center_axis',(0.,0.,-1.));
#245=DIRECTION('ref_axis',(1.,0.,0.));
#246=DIRECTION('',(-0.707106781186548,-8.65956056235494E-17,-0.707106781186547));
#247=CARTESIAN_POINT('',(0.,0.,0.));
#248=CARTESIAN_POINT('Origin',(0.,0.,12.));
#249=CARTESIAN_POINT('',(8.,9.79717439317883E-16,12.));
#250=CARTESIAN_POINT('Origin',(0.,0.,12.));
#251=CARTESIAN_POINT('',(8.,9.79717439317883E-16,2.));
#252=CARTESIAN_POINT('',(8.,-9.79717439317883E-16,12.));
#253=CARTESIAN_POINT('Origin',(0.,0.,2.));
#254=CARTESIAN_POINT('Origin',(0.,0.,2.));
#255=CARTESIAN_POINT('Origin',(0.,0.,20.));
#256=CARTESIAN_POINT('',(11.1,1.35935794705356E-15,20.));
#257=CARTESIAN_POINT('Origin',(0.,0.,20.));
#258=CARTESIAN_POINT('',(11.1,1.35935794705356E-15,12.));
#259=CARTESIAN_POINT('',(11.1,-1.35935794705356E-15,20.));
#260=CARTESIAN_POINT('Origin',(0.,0.,12.));
#261=CARTESIAN_POINT('Origin',(0.,0.,12.));
#262=CARTESIAN_POINT('Ctrl Pts',(13.,0.,17.));
#263=CARTESIAN_POINT('Ctrl Pts',(13.,13.,17.));
#264=CARTESIAN_POINT('Ctrl Pts',(0.,13.,17.));
#265=CARTESIAN_POINT('Ctrl Pts',(-13.,13.,17.));
#266=CARTESIAN_POINT('Ctrl Pts',(-13.,0.,17.));
#267=CARTESIAN_POINT('Ctrl Pts',(-13.,-13.,17.));
#268=CARTESIAN_POINT('Ctrl Pts',(0.,-13.,17.));
#269=CARTESIAN_POINT('Ctrl Pts',(13.,-13.,17.));
#270=CARTESIAN_POINT('Ctrl Pts',(13.,0.,17.));
#271=CARTESIAN_POINT('Ctrl Pts',(12.9241523908074,0.,16.7200000000022));
#272=CARTESIAN_POINT('Ctrl Pts',(12.9241523908074,12.9241523908074,16.7200000000022));
#273=CARTESIAN_POINT('Ctrl Pts',(0.,12.9241523908074,16.7200000000022));
#274=CARTESIAN_POINT('Ctrl Pts',(-12.9241523908074,12.9241523908074,16.7200000000022));
#275=CARTESIAN_POINT('Ctrl Pts',(-12.9241523908074,0.,16.7200000000022));
#276=CARTESIAN_POINT('Ctrl Pts',(-12.9241523908074,-12.9241523908074,16.7200000000022));
#277=CARTESIAN_POINT('Ctrl Pts',(0.,-12.9241523908074,16.7200000000022));
#278=CARTESIAN_POINT('Ctrl Pts',(12.9241523908074,-12.9241523908074,16.7200000000022));
#279=CARTESIAN_POINT('Ctrl Pts',(12.9241523908074,0.,16.7200000000022));
#280=CARTESIAN_POINT('Ctrl Pts',(12.7790809079888,0.,16.1600000000061));
#281=CARTESIAN_POINT('Ctrl Pts',(12.7790809079888,12.7790809079888,16.1600000000061));
#282=CARTESIAN_POINT('Ctrl Pts',(0.,12.7790809079888,16.1600000000061));
#283=CARTESIAN_POINT('Ctrl Pts',(-12.7790809079888,12.7790809079888,16.1600000000061));
#284=CARTESIAN_POINT('Ctrl Pts',(-12.7790809079888,0.,16.1600000000061));
#285=CARTESIAN_POINT('Ctrl Pts',(-12.7790809079888,-12.7790809079888,16.1600000000061));
#286=CARTESIAN_POINT('Ctrl Pts',(0.,-12.7790809079888,16.1600000000061));
#287=CARTESIAN_POINT('Ctrl Pts',(12.7790809079888,-12.7790809079888,16.1600000000061));
#288=CARTESIAN_POINT('Ctrl Pts',(12.7790809079888,0.,16.1600000000061));
#289=CARTESIAN_POINT('Ctrl Pts',(12.5813442814867,0.,15.3200000000102));
#290=CARTESIAN_POINT('Ctrl Pts',(12.5813442814867,12.5813442814867,15.3200000000102));
#291=CARTESIAN_POINT('Ctrl Pts',(0.,12.5813442814867,15.3200000000102));
#292=CARTESIAN_POINT('Ctrl Pts',(-12.5813442814867,12.5813442814867,15.3200000000102));
#293=CARTESIAN_POINT('Ctrl Pts',(-12.5813442814867,0.,15.3200000000102));
#294=CARTESIAN_POINT('Ctrl Pts',(-12.5813442814867,-12.5813442814867,15.3200000000102));
#295=CARTESIAN_POINT('Ctrl Pts',(0.,-12.5813442814867,15.3200000000102));
#296=CARTESIAN_POINT('Ctrl Pts',(12.5813442814867,-12.5813442814867,15.3200000000102));
#297=CARTESIAN_POINT('Ctrl Pts',(12.5813442814867,0.,15.3200000000102));
#298=CARTESIAN_POINT('Ctrl Pts',(12.3580957237912,0.,14.2000000000125));
#299=CARTESIAN_POINT('Ctrl Pts',(12.3580957237912,12.3580957237912,14.2000000000125));
#300=CARTESIAN_POINT('Ctrl Pts',(0.,12.3580957237912,14.2000000000125));
#301=CARTESIAN_POINT('Ctrl Pts',(-12.3580957237912,12.3580957237912,14.2000000000125));
#302=CARTESIAN_POINT('Ctrl Pts',(-12.3580957237912,0.,14.2000000000125));
#303=CARTESIAN_POINT('Ctrl Pts',(-12.3580957237912,-12.3580957237912,14.2000000000125));
#304=CARTESIAN_POINT('Ctrl Pts',(0.,-12.3580957237912,14.2000000000125));
#305=CARTESIAN_POINT('Ctrl Pts',(12.3580957237912,-12.3580957237912,14.2000000000125));
#306=CARTESIAN_POINT('Ctrl Pts',(12.3580957237912,0.,14.2000000000125));
#307=CARTESIAN_POINT('Ctrl Pts',(12.1509386105626,0.,12.8000000000109));
#308=CARTESIAN_POINT('Ctrl Pts',(12.1509386105626,12.1509386105626,12.8000000000109));
#309=CARTESIAN_POINT('Ctrl Pts',(0.,12.1509386105626,12.8000000000109));
#310=CARTESIAN_POINT('Ctrl Pts',(-12.1509386105626,12.1509386105626,12.8000000000109));
#311=CARTESIAN_POINT('Ctrl Pts',(-12.1509386105626,0.,12.8000000000109));
#312=CARTESIAN_POINT('Ctrl Pts',(-12.1509386105626,-12.1509386105626,12.8000000000109));
#313=CARTESIAN_POINT('Ctrl Pts',(0.,-12.1509386105626,12.8000000000109));
#314=CARTESIAN_POINT('Ctrl Pts',(12.1509386105626,-12.1509386105626,12.8000000000109));
#315=CARTESIAN_POINT('Ctrl Pts',(12.1509386105626,0.,12.8000000000109));
#316=CARTESIAN_POINT('Ctrl Pts',(12.0221110360678,0.,11.4000000000062));
#317=CARTESIAN_POINT('Ctrl Pts',(12.0221110360678,12.0221110360678,11.4000000000062));
#318=CARTESIAN_POINT('Ctrl Pts',(0.,12.0221110360678,11.4000000000062));
#319=CARTESIAN_POINT('Ctrl Pts',(-12.0221110360678,12.0221110360678,11.4000000000062));
#320=CARTESIAN_POINT('Ctrl Pts',(-12.0221110360678,0.,11.4000000000062));
#321=CARTESIAN_POINT('Ctrl Pts',(-12.0221110360678,-12.0221110360678,11.4000000000062));
#322=CARTESIAN_POINT('Ctrl Pts',(0.,-12.0221110360678,11.4000000000062));
#323=CARTESIAN_POINT('Ctrl Pts',(12.0221110360678,-12.0221110360678,11.4000000000062));
#324=CARTESIAN_POINT('Ctrl Pts',(12.0221110360678,0.,11.4000000000062));
#325=CARTESIAN_POINT('Ctrl Pts',(11.9780052864211,0.,9.99999999999999));
#326=CARTESIAN_POINT('Ctrl Pts',(11.9780052864211,11.9780052864211,9.99999999999999));
#327=CARTESIAN_POINT('Ctrl Pts',(0.,11.9780052864211,9.99999999999999));
#328=CARTESIAN_POINT('Ctrl Pts',(-11.9780052864211,11.9780052864211,9.99999999999999));
#329=CARTESIAN_POINT('Ctrl Pts',(-11.9780052864211,0.,9.99999999999999));
#330=CARTESIAN_POINT('Ctrl Pts',(-11.9780052864211,-11.9780052864211,9.99999999999999));
#331=CARTESIAN_POINT('Ctrl Pts',(0.,-11.9780052864211,9.99999999999999));
#332=CARTESIAN_POINT('Ctrl Pts',(11.9780052864211,-11.9780052864211,9.99999999999999));
#333=CARTESIAN_POINT('Ctrl Pts',(11.9780052864211,0.,9.99999999999999));
#334=CARTESIAN_POINT('Ctrl Pts',(12.0221110360519,0.,8.5999999999938));
#335=CARTESIAN_POINT('Ctrl Pts',(12.0221110360519,12.0221110360519,8.5999999999938));
#336=CARTESIAN_POINT('Ctrl Pts',(0.,12.0221110360519,8.5999999999938));
#337=CARTESIAN_POINT('Ctrl Pts',(-12.0221110360519,12.0221110360519,8.5999999999938));
#338=CARTESIAN_POINT('Ctrl Pts',(-12.0221110360519,0.,8.5999999999938));
#339=CARTESIAN_POINT('Ctrl Pts',(-12.0221110360519,-12.0221110360519,8.5999999999938));
#340=CARTESIAN_POINT('Ctrl Pts',(0.,-12.0221110360519,8.5999999999938));
#341=CARTESIAN_POINT('Ctrl Pts',(12.0221110360519,-12.0221110360519,8.5999999999938));
#342=CARTESIAN_POINT('Ctrl Pts',(12.0221110360519,0.,8.5999999999938));
#343=CARTESIAN_POINT('Ctrl Pts',(12.1509386105348,0.,7.1999999999892));
#344=CARTESIAN_POINT('Ctrl Pts',(12.1509386105348,12.1509386105348,7.1999999999892));
#345=CARTESIAN_POINT('Ctrl Pts',(0.,12.1509386105348,7.1999999999892));
#346=CARTESIAN_POINT('Ctrl Pts',(-12.1509386105348,12.1509386105348,7.1999999999892));
#347=CARTESIAN_POINT('Ctrl Pts',(-12.1509386105348,0.,7.1999999999892));
#348=CARTESIAN_POINT('Ctrl Pts',(-12.1509386105348,-12.1509386105348,7.1999999999892));
#349=CARTESIAN_POINT('Ctrl Pts',(0.,-12.1509386105348,7.1999999999892));
#350=CARTESIAN_POINT('Ctrl Pts',(12.1509386105348,-12.1509386105348,7.1999999999892));
#351=CARTESIAN_POINT('Ctrl Pts',(12.1509386105348,0.,7.1999999999892));
#352=CARTESIAN_POINT('Ctrl Pts',(12.3580957237593,0.,5.79999999998762));
#353=CARTESIAN_POINT('Ctrl Pts',(12.3580957237593,12.3580957237593,5.79999999998762));
#354=CARTESIAN_POINT('Ctrl Pts',(0.,12.3580957237593,5.79999999998762));
#355=CARTESIAN_POINT('Ctrl Pts',(-12.3580957237593,12.3580957237593,5.79999999998762));
#356=CARTESIAN_POINT('Ctrl Pts',(-12.3580957237593,0.,5.79999999998762));
#357=CARTESIAN_POINT('Ctrl Pts',(-12.3580957237593,-12.3580957237593,5.79999999998762));
#358=CARTESIAN_POINT('Ctrl Pts',(0.,-12.3580957237593,5.79999999998762));
#359=CARTESIAN_POINT('Ctrl Pts',(12.3580957237593,-12.3580957237593,5.79999999998762));
#360=CARTESIAN_POINT('Ctrl Pts',(12.3580957237593,0.,5.79999999998762));
#361=CARTESIAN_POINT('Ctrl Pts',(12.5813442814605,0.,4.67999999998984));
#362=CARTESIAN_POINT('Ctrl Pts',(12.5813442814605,12.5813442814605,4.67999999998984));
#363=CARTESIAN_POINT('Ctrl Pts',(0.,12.5813442814605,4.67999999998984));
#364=CARTESIAN_POINT('Ctrl Pts',(-12.5813442814605,12.5813442814605,4.67999999998984));
#365=CARTESIAN_POINT('Ctrl Pts',(-12.5813442814605,0.,4.67999999998984));
#366=CARTESIAN_POINT('Ctrl Pts',(-12.5813442814605,-12.5813442814605,4.67999999998984));
#367=CARTESIAN_POINT('Ctrl Pts',(0.,-12.5813442814605,4.67999999998984));
#368=CARTESIAN_POINT('Ctrl Pts',(12.5813442814605,-12.5813442814605,4.67999999998984));
#369=CARTESIAN_POINT('Ctrl Pts',(12.5813442814605,0.,4.67999999998984));
#370=CARTESIAN_POINT('Ctrl Pts',(12.7790809079732,0.,3.83999999999392));
#371=CARTESIAN_POINT('Ctrl Pts',(12.7790809079732,12.7790809079732,3.83999999999392));
#372=CARTESIAN_POINT('Ctrl Pts',(0.,12.7790809079732,3.83999999999392));
#373=CARTESIAN_POINT('Ctrl Pts',(-12.7790809079732,12.7790809079732,3.83999999999392));
#374=CARTESIAN_POINT('Ctrl Pts',(-12.7790809079732,0.,3.83999999999392));
#375=CARTESIAN_POINT('Ctrl Pts',(-12.7790809079732,-12.7790809079732,3.83999999999392));
#376=CARTESIAN_POINT('Ctrl Pts',(0.,-12.7790809079732,3.83999999999392));
#377=CARTESIAN_POINT('Ctrl Pts',(12.7790809079732,-12.7790809079732,3.83999999999392));
#378=CARTESIAN_POINT('Ctrl Pts',(12.7790809079732,0.,3.83999999999392));
#379=CARTESIAN_POINT('Ctrl Pts',(12.9241523908017,0.,3.27999999999778));
#380=CARTESIAN_POINT('Ctrl Pts',(12.9241523908017,12.9241523908017,3.27999999999778));
#381=CARTESIAN_POINT('Ctrl Pts',(0.,12.9241523908017,3.27999999999778));
#382=CARTESIAN_POINT('Ctrl Pts',(-12.9241523908017,12.9241523908017,3.27999999999778));
#383=CARTESIAN_POINT('Ctrl Pts',(-12.9241523908017,0.,3.27999999999778));
#384=CARTESIAN_POINT('Ctrl Pts',(-12.9241523908017,-12.9241523908017,3.27999999999778));
#385=CARTESIAN_POINT('Ctrl Pts',(0.,-12.9241523908017,3.27999999999778));
#386=CARTESIAN_POINT('Ctrl Pts',(12.9241523908017,-12.9241523908017,3.27999999999778));
#387=CARTESIAN_POINT('Ctrl Pts',(12.9241523908017,0.,3.27999999999778));
#388=CARTESIAN_POINT('Ctrl Pts',(13.,0.,3.));
#389=CARTESIAN_POINT('Ctrl Pts',(13.,13.,3.));
#390=CARTESIAN_POINT('Ctrl Pts',(0.,13.,3.));
#391=CARTESIAN_POINT('Ctrl Pts',(-13.,13.,3.));
#392=CARTESIAN_POINT('Ctrl Pts',(-13.,0.,3.));
#393=CARTESIAN_POINT('Ctrl Pts',(-13.,-13.,3.));
#394=CARTESIAN_POINT('Ctrl Pts',(0.,-13.,3.));
#395=CARTESIAN_POINT('Ctrl Pts',(13.,-13.,3.));
#396=CARTESIAN_POINT('Ctrl Pts',(13.,0.,3.));
#397=CARTESIAN_POINT('',(13.,0.,3.));
#398=CARTESIAN_POINT('',(13.,0.,17.));
#399=CARTESIAN_POINT('Ctrl Pts',(13.,0.,3.));
#400=CARTESIAN_POINT('Ctrl Pts',(12.9241523908017,0.,3.27999999999778));
#401=CARTESIAN_POINT('Ctrl Pts',(12.7790809079732,0.,3.83999999999392));
#402=CARTESIAN_POINT('Ctrl Pts',(12.5813442814605,0.,4.67999999998984));
#403=CARTESIAN_POINT('Ctrl Pts',(12.3580957237593,0.,5.79999999998762));
#404=CARTESIAN_POINT('Ctrl Pts',(12.1509386105348,0.,7.1999999999892));
#405=CARTESIAN_POINT('Ctrl Pts',(12.0221110360519,0.,8.5999999999938));
#406=CARTESIAN_POINT('Ctrl Pts',(11.9780052864211,0.,9.99999999999999));
#407=CARTESIAN_POINT('Ctrl Pts',(12.0221110360678,0.,11.4000000000062));
#408=CARTESIAN_POINT('Ctrl Pts',(12.1509386105626,0.,12.8000000000109));
#409=CARTESIAN_POINT('Ctrl Pts',(12.3580957237912,0.,14.2000000000125));
#410=CARTESIAN_POINT('Ctrl Pts',(12.5813442814867,0.,15.3200000000102));
#411=CARTESIAN_POINT('Ctrl Pts',(12.7790809079888,0.,16.1600000000061));
#412=CARTESIAN_POINT('Ctrl Pts',(12.9241523908074,0.,16.7200000000022));
#413=CARTESIAN_POINT('Ctrl Pts',(13.,0.,17.));
#414=CARTESIAN_POINT('',(-13.,-1.59204083889156E-15,3.));
#415=CARTESIAN_POINT('Origin',(0.,0.,3.));
#416=CARTESIAN_POINT('Origin',(0.,0.,3.));
#417=CARTESIAN_POINT('',(-13.,-1.59204083889156E-15,17.));
#418=CARTESIAN_POINT('Origin',(0.,0.,17.));
#419=CARTESIAN_POINT('Origin',(0.,0.,17.));
#420=CARTESIAN_POINT('Origin',(0.,0.,18.0732233047034));
#421=CARTESIAN_POINT('',(-15.1464466094067,-1.85490473586662E-15,19.1464466094067));
#422=CARTESIAN_POINT('Origin',(0.,0.,19.1464466094067));
#423=CARTESIAN_POINT('',(-14.0732233047034,-1.72347278737909E-15,18.0732233047034));
#424=CARTESIAN_POINT('Origin',(0.,0.,19.5));
#425=CARTESIAN_POINT('',(-14.7928932188135,-1.81160693305485E-15,20.));
#426=CARTESIAN_POINT('Origin',(0.,0.,20.));
#427=CARTESIAN_POINT('Origin',(-14.7928932188135,-1.81160693305485E-15,
19.5));
#428=CARTESIAN_POINT('Origin',(0.,0.,20.));
#429=CARTESIAN_POINT('Origin',(14.7928932188135,0.,6.93889390390723E-16));
#430=CARTESIAN_POINT('',(-14.7928932188135,-1.81160693305485E-15,8.32667268468867E-16));
#431=CARTESIAN_POINT('Origin',(0.,0.,8.32667268468867E-16));
#432=CARTESIAN_POINT('Origin',(0.,0.,0.500000000000001));
#433=CARTESIAN_POINT('',(-15.1464466094067,-1.85490473586662E-15,0.853553390593274));
#434=CARTESIAN_POINT('Origin',(0.,0.,0.853553390593275));
#435=CARTESIAN_POINT('Origin',(-14.7928932188135,-1.81160693305485E-15,
0.500000000000001));
#436=CARTESIAN_POINT('Origin',(0.,0.,1.92677669529664));
#437=CARTESIAN_POINT('',(-14.0732233047034,-1.72347278737909E-15,1.92677669529664));
#438=UNCERTAINTY_MEASURE_WITH_UNIT(LENGTH_MEASURE(0.01),#442,
'DISTANCE_ACCURACY_VALUE',
'Maximum model space distance between geometric entities at asserted c
onnectivities');
#439=UNCERTAINTY_MEASURE_WITH_UNIT(LENGTH_MEASURE(0.01),#442,
'DISTANCE_ACCURACY_VALUE',
'Maximum model space distance between geometric entities at asserted c
onnectivities');
#440=(
GEOMETRIC_REPRESENTATION_CONTEXT(3)
GLOBAL_UNCERTAINTY_ASSIGNED_CONTEXT((#438))
GLOBAL_UNIT_ASSIGNED_CONTEXT((#442,#444,#445))
REPRESENTATION_CONTEXT('','3D')
);
#441=(
GEOMETRIC_REPRESENTATION_CONTEXT(3)
GLOBAL_UNCERTAINTY_ASSIGNED_CONTEXT((#439))
GLOBAL_UNIT_ASSIGNED_CONTEXT((#442,#444,#445))
REPRESENTATION_CONTEXT('','3D')
);
#442=(
LENGTH_UNIT()
NAMED_UNIT(*)
SI_UNIT(.MILLI.,.METRE.)
);
#443=(
LENGTH_UNIT()
NAMED_UNIT(*)
SI_UNIT($,.METRE.)
);
#444=(
NAMED_UNIT(*)
PLANE_ANGLE_UNIT()
SI_UNIT($,.RADIAN.)
);
#445=(
NAMED_UNIT(*)
SI_UNIT($,.STERADIAN.)
SOLID_ANGLE_UNIT()
);
#446=SHAPE_DEFINITION_REPRESENTATION(#447,#448);
#447=PRODUCT_DEFINITION_SHAPE('',$,#450);
#448=SHAPE_REPRESENTATION('',(#168),#440);
#449=PRODUCT_DEFINITION_CONTEXT('part definition',#454,'design');
#450=PRODUCT_DEFINITION('2026-06-15-06-48-44-844',
'SURREPTOR_front_wheel',#451,#449);
#451=PRODUCT_DEFINITION_FORMATION('',$,#456);
#452=PRODUCT_RELATED_PRODUCT_CATEGORY('SURREPTOR_front_wheel',
'SURREPTOR_front_wheel',(#456));
#453=APPLICATION_PROTOCOL_DEFINITION('international standard',
'automotive_design',2009,#454);
#454=APPLICATION_CONTEXT(
'Core Data for Automotive Mechanical Design Process');
#455=PRODUCT_CONTEXT('part definition',#454,'mechanical');
#456=PRODUCT('2026-06-15-06-48-44-844','SURREPTOR_front_wheel',$,(#455));
#457=PRESENTATION_STYLE_ASSIGNMENT((#458));
#458=SURFACE_STYLE_USAGE(.BOTH.,#459);
#459=SURFACE_SIDE_STYLE('',(#460));
#460=SURFACE_STYLE_FILL_AREA(#461);
#461=FILL_AREA_STYLE('Steel - Satin',(#462));
#462=FILL_AREA_STYLE_COLOUR('Steel - Satin',#463);
#463=COLOUR_RGB('Steel - Satin',0.627450980392157,0.627450980392157,0.627450980392157);
ENDSEC;
END-ISO-10303-21;
