ISO-10303-21;
HEADER;
/* Generated by software containing ST-Developer
 * from STEP Tools, Inc. (www.steptools.com) 
 */

FILE_DESCRIPTION(
/* description */ (''),
/* implementation_level */ '2;1');

FILE_NAME(
/* name */ 'brackets.step',
/* time_stamp */ '2026-10-06T13:44:20+03:00',
/* author */ (''),
/* organization */ (''),
/* preprocessor_version */ 'ST-DEVELOPER v20.2',
/* originating_system */ 'Autodesk Translation Framework v15.15.0.0',
/* authorisation */ '');

FILE_SCHEMA (('AUTOMOTIVE_DESIGN { 1 0 10303 214 3 1 1 }'));
ENDSEC;

DATA;
#10=MECHANICAL_DESIGN_GEOMETRIC_PRESENTATION_REPRESENTATION('',(#13),#518);
#11=SHAPE_REPRESENTATION_RELATIONSHIP('SRR','None',#525,#12);
#12=ADVANCED_BREP_SHAPE_REPRESENTATION('',(#14),#517);
#13=STYLED_ITEM('',(#535),#14);
#14=MANIFOLD_SOLID_BREP('Body2',#298);
#15=FACE_BOUND('',#48,.T.);
#16=FACE_BOUND('',#49,.T.);
#17=FACE_BOUND('',#50,.T.);
#18=FACE_BOUND('',#51,.T.);
#19=FACE_BOUND('',#52,.T.);
#20=FACE_BOUND('',#66,.T.);
#21=FACE_BOUND('',#67,.T.);
#22=FACE_BOUND('',#68,.T.);
#23=FACE_BOUND('',#69,.T.);
#24=FACE_BOUND('',#70,.T.);
#25=PLANE('',#315);
#26=PLANE('',#324);
#27=PLANE('',#329);
#28=PLANE('',#342);
#29=PLANE('',#343);
#30=PLANE('',#344);
#31=FACE_OUTER_BOUND('',#46,.T.);
#32=FACE_OUTER_BOUND('',#47,.T.);
#33=FACE_OUTER_BOUND('',#53,.T.);
#34=FACE_OUTER_BOUND('',#54,.T.);
#35=FACE_OUTER_BOUND('',#55,.T.);
#36=FACE_OUTER_BOUND('',#56,.T.);
#37=FACE_OUTER_BOUND('',#57,.T.);
#38=FACE_OUTER_BOUND('',#58,.T.);
#39=FACE_OUTER_BOUND('',#59,.T.);
#40=FACE_OUTER_BOUND('',#60,.T.);
#41=FACE_OUTER_BOUND('',#61,.T.);
#42=FACE_OUTER_BOUND('',#62,.T.);
#43=FACE_OUTER_BOUND('',#63,.T.);
#44=FACE_OUTER_BOUND('',#64,.T.);
#45=FACE_OUTER_BOUND('',#65,.T.);
#46=EDGE_LOOP('',(#196,#197,#198,#199));
#47=EDGE_LOOP('',(#200,#201,#202,#203,#204,#205,#206,#207));
#48=EDGE_LOOP('',(#208));
#49=EDGE_LOOP('',(#209));
#50=EDGE_LOOP('',(#210));
#51=EDGE_LOOP('',(#211));
#52=EDGE_LOOP('',(#212));
#53=EDGE_LOOP('',(#213,#214,#215,#216));
#54=EDGE_LOOP('',(#217,#218,#219,#220));
#55=EDGE_LOOP('',(#221,#222,#223,#224));
#56=EDGE_LOOP('',(#225,#226,#227,#228));
#57=EDGE_LOOP('',(#229,#230,#231,#232));
#58=EDGE_LOOP('',(#233,#234,#235,#236));
#59=EDGE_LOOP('',(#237,#238,#239,#240));
#60=EDGE_LOOP('',(#241,#242,#243,#244));
#61=EDGE_LOOP('',(#245,#246,#247,#248));
#62=EDGE_LOOP('',(#249,#250,#251,#252));
#63=EDGE_LOOP('',(#253,#254,#255,#256));
#64=EDGE_LOOP('',(#257,#258,#259,#260));
#65=EDGE_LOOP('',(#261,#262,#263,#264,#265,#266,#267,#268));
#66=EDGE_LOOP('',(#269));
#67=EDGE_LOOP('',(#270));
#68=EDGE_LOOP('',(#271));
#69=EDGE_LOOP('',(#272));
#70=EDGE_LOOP('',(#273));
#71=LINE('',#440,#92);
#72=LINE('',#443,#93);
#73=LINE('',#446,#94);
#74=LINE('',#450,#95);
#75=LINE('',#454,#96);
#76=LINE('',#457,#97);
#77=LINE('',#470,#98);
#78=LINE('',#471,#99);
#79=LINE('',#475,#100);
#80=LINE('',#480,#101);
#81=LINE('',#481,#102);
#82=LINE('',#484,#103);
#83=LINE('',#485,#104);
#84=LINE('',#489,#105);
#85=LINE('',#493,#106);
#86=LINE('',#497,#107);
#87=LINE('',#501,#108);
#88=LINE('',#505,#109);
#89=LINE('',#509,#110);
#90=LINE('',#511,#111);
#91=LINE('',#513,#112);
#92=VECTOR('',#351,10.);
#93=VECTOR('',#354,10.);
#94=VECTOR('',#357,10.);
#95=VECTOR('',#360,10.);
#96=VECTOR('',#363,10.);
#97=VECTOR('',#366,10.);
#98=VECTOR('',#379,10.);
#99=VECTOR('',#380,10.);
#100=VECTOR('',#385,10.);
#101=VECTOR('',#390,10.);
#102=VECTOR('',#391,10.);
#103=VECTOR('',#394,10.);
#104=VECTOR('',#395,10.);
#105=VECTOR('',#400,10.);
#106=VECTOR('',#405,2.1);
#107=VECTOR('',#410,2.1);
#108=VECTOR('',#415,2.1);
#109=VECTOR('',#420,2.1);
#110=VECTOR('',#425,2.1);
#111=VECTOR('',#428,10.);
#112=VECTOR('',#431,10.);
#113=CIRCLE('',#313,2.);
#114=CIRCLE('',#314,2.);
#115=CIRCLE('',#316,2.);
#116=CIRCLE('',#317,2.);
#117=CIRCLE('',#318,2.);
#118=CIRCLE('',#319,2.1);
#119=CIRCLE('',#320,2.1);
#120=CIRCLE('',#321,2.1);
#121=CIRCLE('',#322,2.1);
#122=CIRCLE('',#323,2.1);
#123=CIRCLE('',#326,2.);
#124=CIRCLE('',#328,2.);
#125=CIRCLE('',#331,2.);
#126=CIRCLE('',#333,2.1);
#127=CIRCLE('',#335,2.1);
#128=CIRCLE('',#337,2.1);
#129=CIRCLE('',#339,2.1);
#130=CIRCLE('',#341,2.1);
#131=VERTEX_POINT('',#436);
#132=VERTEX_POINT('',#437);
#133=VERTEX_POINT('',#439);
#134=VERTEX_POINT('',#441);
#135=VERTEX_POINT('',#445);
#136=VERTEX_POINT('',#447);
#137=VERTEX_POINT('',#449);
#138=VERTEX_POINT('',#451);
#139=VERTEX_POINT('',#453);
#140=VERTEX_POINT('',#455);
#141=VERTEX_POINT('',#458);
#142=VERTEX_POINT('',#460);
#143=VERTEX_POINT('',#462);
#144=VERTEX_POINT('',#464);
#145=VERTEX_POINT('',#466);
#146=VERTEX_POINT('',#469);
#147=VERTEX_POINT('',#473);
#148=VERTEX_POINT('',#477);
#149=VERTEX_POINT('',#478);
#150=VERTEX_POINT('',#483);
#151=VERTEX_POINT('',#487);
#152=VERTEX_POINT('',#491);
#153=VERTEX_POINT('',#495);
#154=VERTEX_POINT('',#499);
#155=VERTEX_POINT('',#503);
#156=VERTEX_POINT('',#507);
#157=EDGE_CURVE('',#131,#132,#113,.T.);
#158=EDGE_CURVE('',#132,#133,#71,.T.);
#159=EDGE_CURVE('',#133,#134,#114,.T.);
#160=EDGE_CURVE('',#134,#131,#72,.T.);
#161=EDGE_CURVE('',#135,#133,#73,.T.);
#162=EDGE_CURVE('',#136,#135,#115,.T.);
#163=EDGE_CURVE('',#137,#136,#74,.T.);
#164=EDGE_CURVE('',#138,#137,#116,.T.);
#165=EDGE_CURVE('',#139,#138,#75,.T.);
#166=EDGE_CURVE('',#140,#139,#117,.T.);
#167=EDGE_CURVE('',#140,#134,#76,.T.);
#168=EDGE_CURVE('',#141,#141,#118,.T.);
#169=EDGE_CURVE('',#142,#142,#119,.T.);
#170=EDGE_CURVE('',#143,#143,#120,.T.);
#171=EDGE_CURVE('',#144,#144,#121,.T.);
#172=EDGE_CURVE('',#145,#145,#122,.T.);
#173=EDGE_CURVE('',#146,#132,#77,.T.);
#174=EDGE_CURVE('',#135,#146,#78,.T.);
#175=EDGE_CURVE('',#146,#147,#123,.T.);
#176=EDGE_CURVE('',#147,#136,#79,.T.);
#177=EDGE_CURVE('',#148,#149,#124,.T.);
#178=EDGE_CURVE('',#149,#140,#80,.T.);
#179=EDGE_CURVE('',#139,#148,#81,.T.);
#180=EDGE_CURVE('',#150,#138,#82,.T.);
#181=EDGE_CURVE('',#148,#150,#83,.T.);
#182=EDGE_CURVE('',#151,#150,#125,.T.);
#183=EDGE_CURVE('',#137,#151,#84,.T.);
#184=EDGE_CURVE('',#152,#152,#126,.T.);
#185=EDGE_CURVE('',#152,#145,#85,.T.);
#186=EDGE_CURVE('',#153,#153,#127,.T.);
#187=EDGE_CURVE('',#153,#144,#86,.T.);
#188=EDGE_CURVE('',#154,#154,#128,.T.);
#189=EDGE_CURVE('',#154,#143,#87,.T.);
#190=EDGE_CURVE('',#155,#155,#129,.T.);
#191=EDGE_CURVE('',#155,#142,#88,.T.);
#192=EDGE_CURVE('',#156,#156,#130,.T.);
#193=EDGE_CURVE('',#156,#141,#89,.T.);
#194=EDGE_CURVE('',#131,#149,#90,.T.);
#195=EDGE_CURVE('',#151,#147,#91,.T.);
#196=ORIENTED_EDGE('',*,*,#157,.T.);
#197=ORIENTED_EDGE('',*,*,#158,.T.);
#198=ORIENTED_EDGE('',*,*,#159,.T.);
#199=ORIENTED_EDGE('',*,*,#160,.T.);
#200=ORIENTED_EDGE('',*,*,#159,.F.);
#201=ORIENTED_EDGE('',*,*,#161,.F.);
#202=ORIENTED_EDGE('',*,*,#162,.F.);
#203=ORIENTED_EDGE('',*,*,#163,.F.);
#204=ORIENTED_EDGE('',*,*,#164,.F.);
#205=ORIENTED_EDGE('',*,*,#165,.F.);
#206=ORIENTED_EDGE('',*,*,#166,.F.);
#207=ORIENTED_EDGE('',*,*,#167,.T.);
#208=ORIENTED_EDGE('',*,*,#168,.F.);
#209=ORIENTED_EDGE('',*,*,#169,.F.);
#210=ORIENTED_EDGE('',*,*,#170,.F.);
#211=ORIENTED_EDGE('',*,*,#171,.F.);
#212=ORIENTED_EDGE('',*,*,#172,.F.);
#213=ORIENTED_EDGE('',*,*,#158,.F.);
#214=ORIENTED_EDGE('',*,*,#173,.F.);
#215=ORIENTED_EDGE('',*,*,#174,.F.);
#216=ORIENTED_EDGE('',*,*,#161,.T.);
#217=ORIENTED_EDGE('',*,*,#175,.T.);
#218=ORIENTED_EDGE('',*,*,#176,.T.);
#219=ORIENTED_EDGE('',*,*,#162,.T.);
#220=ORIENTED_EDGE('',*,*,#174,.T.);
#221=ORIENTED_EDGE('',*,*,#177,.T.);
#222=ORIENTED_EDGE('',*,*,#178,.T.);
#223=ORIENTED_EDGE('',*,*,#166,.T.);
#224=ORIENTED_EDGE('',*,*,#179,.T.);
#225=ORIENTED_EDGE('',*,*,#179,.F.);
#226=ORIENTED_EDGE('',*,*,#165,.T.);
#227=ORIENTED_EDGE('',*,*,#180,.F.);
#228=ORIENTED_EDGE('',*,*,#181,.F.);
#229=ORIENTED_EDGE('',*,*,#182,.T.);
#230=ORIENTED_EDGE('',*,*,#180,.T.);
#231=ORIENTED_EDGE('',*,*,#164,.T.);
#232=ORIENTED_EDGE('',*,*,#183,.T.);
#233=ORIENTED_EDGE('',*,*,#184,.F.);
#234=ORIENTED_EDGE('',*,*,#185,.T.);
#235=ORIENTED_EDGE('',*,*,#172,.T.);
#236=ORIENTED_EDGE('',*,*,#185,.F.);
#237=ORIENTED_EDGE('',*,*,#186,.F.);
#238=ORIENTED_EDGE('',*,*,#187,.T.);
#239=ORIENTED_EDGE('',*,*,#171,.T.);
#240=ORIENTED_EDGE('',*,*,#187,.F.);
#241=ORIENTED_EDGE('',*,*,#188,.F.);
#242=ORIENTED_EDGE('',*,*,#189,.T.);
#243=ORIENTED_EDGE('',*,*,#170,.T.);
#244=ORIENTED_EDGE('',*,*,#189,.F.);
#245=ORIENTED_EDGE('',*,*,#190,.F.);
#246=ORIENTED_EDGE('',*,*,#191,.T.);
#247=ORIENTED_EDGE('',*,*,#169,.T.);
#248=ORIENTED_EDGE('',*,*,#191,.F.);
#249=ORIENTED_EDGE('',*,*,#192,.F.);
#250=ORIENTED_EDGE('',*,*,#193,.T.);
#251=ORIENTED_EDGE('',*,*,#168,.T.);
#252=ORIENTED_EDGE('',*,*,#193,.F.);
#253=ORIENTED_EDGE('',*,*,#160,.F.);
#254=ORIENTED_EDGE('',*,*,#167,.F.);
#255=ORIENTED_EDGE('',*,*,#178,.F.);
#256=ORIENTED_EDGE('',*,*,#194,.F.);
#257=ORIENTED_EDGE('',*,*,#176,.F.);
#258=ORIENTED_EDGE('',*,*,#195,.F.);
#259=ORIENTED_EDGE('',*,*,#183,.F.);
#260=ORIENTED_EDGE('',*,*,#163,.T.);
#261=ORIENTED_EDGE('',*,*,#157,.F.);
#262=ORIENTED_EDGE('',*,*,#194,.T.);
#263=ORIENTED_EDGE('',*,*,#177,.F.);
#264=ORIENTED_EDGE('',*,*,#181,.T.);
#265=ORIENTED_EDGE('',*,*,#182,.F.);
#266=ORIENTED_EDGE('',*,*,#195,.T.);
#267=ORIENTED_EDGE('',*,*,#175,.F.);
#268=ORIENTED_EDGE('',*,*,#173,.T.);
#269=ORIENTED_EDGE('',*,*,#192,.T.);
#270=ORIENTED_EDGE('',*,*,#190,.T.);
#271=ORIENTED_EDGE('',*,*,#188,.T.);
#272=ORIENTED_EDGE('',*,*,#186,.T.);
#273=ORIENTED_EDGE('',*,*,#184,.T.);
#274=CYLINDRICAL_SURFACE('',#312,2.);
#275=CYLINDRICAL_SURFACE('',#325,2.);
#276=CYLINDRICAL_SURFACE('',#327,2.);
#277=CYLINDRICAL_SURFACE('',#330,2.);
#278=CYLINDRICAL_SURFACE('',#332,2.1);
#279=CYLINDRICAL_SURFACE('',#334,2.1);
#280=CYLINDRICAL_SURFACE('',#336,2.1);
#281=CYLINDRICAL_SURFACE('',#338,2.1);
#282=CYLINDRICAL_SURFACE('',#340,2.1);
#283=ADVANCED_FACE('',(#31),#274,.T.);
#284=ADVANCED_FACE('',(#32,#15,#16,#17,#18,#19),#25,.F.);
#285=ADVANCED_FACE('',(#33),#26,.T.);
#286=ADVANCED_FACE('',(#34),#275,.T.);
#287=ADVANCED_FACE('',(#35),#276,.T.);
#288=ADVANCED_FACE('',(#36),#27,.T.);
#289=ADVANCED_FACE('',(#37),#277,.T.);
#290=ADVANCED_FACE('',(#38),#278,.F.);
#291=ADVANCED_FACE('',(#39),#279,.F.);
#292=ADVANCED_FACE('',(#40),#280,.F.);
#293=ADVANCED_FACE('',(#41),#281,.F.);
#294=ADVANCED_FACE('',(#42),#282,.F.);
#295=ADVANCED_FACE('',(#43),#28,.T.);
#296=ADVANCED_FACE('',(#44),#29,.T.);
#297=ADVANCED_FACE('',(#45,#20,#21,#22,#23,#24),#30,.T.);
#298=CLOSED_SHELL('',(#283,#284,#285,#286,#287,#288,#289,#290,#291,#292,
#293,#294,#295,#296,#297));
#299=DERIVED_UNIT_ELEMENT(#301,1.);
#300=DERIVED_UNIT_ELEMENT(#520,-3.);
#301=(
MASS_UNIT()
NAMED_UNIT(*)
SI_UNIT(.KILO.,.GRAM.)
);
#302=DERIVED_UNIT((#299,#300));
#303=MEASURE_REPRESENTATION_ITEM('density measure',
POSITIVE_RATIO_MEASURE(7850.),#302);
#304=PROPERTY_DEFINITION_REPRESENTATION(#309,#306);
#305=PROPERTY_DEFINITION_REPRESENTATION(#310,#307);
#306=REPRESENTATION('material name',(#308),#517);
#307=REPRESENTATION('density',(#303),#517);
#308=DESCRIPTIVE_REPRESENTATION_ITEM('Steel','Steel');
#309=PROPERTY_DEFINITION('material property','material name',#527);
#310=PROPERTY_DEFINITION('material property','density of part',#527);
#311=AXIS2_PLACEMENT_3D('',#434,#345,#346);
#312=AXIS2_PLACEMENT_3D('',#435,#347,#348);
#313=AXIS2_PLACEMENT_3D('',#438,#349,#350);
#314=AXIS2_PLACEMENT_3D('',#442,#352,#353);
#315=AXIS2_PLACEMENT_3D('',#444,#355,#356);
#316=AXIS2_PLACEMENT_3D('',#448,#358,#359);
#317=AXIS2_PLACEMENT_3D('',#452,#361,#362);
#318=AXIS2_PLACEMENT_3D('',#456,#364,#365);
#319=AXIS2_PLACEMENT_3D('',#459,#367,#368);
#320=AXIS2_PLACEMENT_3D('',#461,#369,#370);
#321=AXIS2_PLACEMENT_3D('',#463,#371,#372);
#322=AXIS2_PLACEMENT_3D('',#465,#373,#374);
#323=AXIS2_PLACEMENT_3D('',#467,#375,#376);
#324=AXIS2_PLACEMENT_3D('',#468,#377,#378);
#325=AXIS2_PLACEMENT_3D('',#472,#381,#382);
#326=AXIS2_PLACEMENT_3D('',#474,#383,#384);
#327=AXIS2_PLACEMENT_3D('',#476,#386,#387);
#328=AXIS2_PLACEMENT_3D('',#479,#388,#389);
#329=AXIS2_PLACEMENT_3D('',#482,#392,#393);
#330=AXIS2_PLACEMENT_3D('',#486,#396,#397);
#331=AXIS2_PLACEMENT_3D('',#488,#398,#399);
#332=AXIS2_PLACEMENT_3D('',#490,#401,#402);
#333=AXIS2_PLACEMENT_3D('',#492,#403,#404);
#334=AXIS2_PLACEMENT_3D('',#494,#406,#407);
#335=AXIS2_PLACEMENT_3D('',#496,#408,#409);
#336=AXIS2_PLACEMENT_3D('',#498,#411,#412);
#337=AXIS2_PLACEMENT_3D('',#500,#413,#414);
#338=AXIS2_PLACEMENT_3D('',#502,#416,#417);
#339=AXIS2_PLACEMENT_3D('',#504,#418,#419);
#340=AXIS2_PLACEMENT_3D('',#506,#421,#422);
#341=AXIS2_PLACEMENT_3D('',#508,#423,#424);
#342=AXIS2_PLACEMENT_3D('',#510,#426,#427);
#343=AXIS2_PLACEMENT_3D('',#512,#429,#430);
#344=AXIS2_PLACEMENT_3D('',#514,#432,#433);
#345=DIRECTION('axis',(0.,0.,1.));
#346=DIRECTION('refdir',(1.,0.,0.));
#347=DIRECTION('center_axis',(0.,1.,0.));
#348=DIRECTION('ref_axis',(0.707106781186548,0.,-0.707106781186548));
#349=DIRECTION('center_axis',(0.,-1.,0.));
#350=DIRECTION('ref_axis',(0.707106781186548,0.,-0.707106781186548));
#351=DIRECTION('',(0.,-1.,0.));
#352=DIRECTION('center_axis',(0.,1.,0.));
#353=DIRECTION('ref_axis',(0.707106781186548,0.,-0.707106781186548));
#354=DIRECTION('',(0.,1.,0.));
#355=DIRECTION('center_axis',(0.,1.,0.));
#356=DIRECTION('ref_axis',(1.,0.,0.));
#357=DIRECTION('',(0.,0.,-1.));
#358=DIRECTION('center_axis',(0.,1.,0.));
#359=DIRECTION('ref_axis',(0.707106781186549,0.,0.707106781186546));
#360=DIRECTION('',(1.,0.,0.));
#361=DIRECTION('center_axis',(0.,1.,0.));
#362=DIRECTION('ref_axis',(-0.707106781186549,0.,0.707106781186546));
#363=DIRECTION('',(0.,0.,1.));
#364=DIRECTION('center_axis',(0.,1.,0.));
#365=DIRECTION('ref_axis',(-0.707106781186548,0.,-0.707106781186548));
#366=DIRECTION('',(1.,0.,0.));
#367=DIRECTION('center_axis',(0.,-1.,0.));
#368=DIRECTION('ref_axis',(1.,0.,0.));
#369=DIRECTION('center_axis',(0.,-1.,0.));
#370=DIRECTION('ref_axis',(1.,0.,0.));
#371=DIRECTION('center_axis',(0.,-1.,0.));
#372=DIRECTION('ref_axis',(1.,0.,0.));
#373=DIRECTION('center_axis',(0.,-1.,0.));
#374=DIRECTION('ref_axis',(1.,0.,0.));
#375=DIRECTION('center_axis',(0.,-1.,0.));
#376=DIRECTION('ref_axis',(1.,0.,0.));
#377=DIRECTION('center_axis',(1.,0.,0.));
#378=DIRECTION('ref_axis',(0.,0.,-1.));
#379=DIRECTION('',(0.,0.,-1.));
#380=DIRECTION('',(0.,1.,0.));
#381=DIRECTION('center_axis',(0.,1.,0.));
#382=DIRECTION('ref_axis',(0.707106781186549,0.,0.707106781186546));
#383=DIRECTION('center_axis',(0.,-1.,0.));
#384=DIRECTION('ref_axis',(0.707106781186549,0.,0.707106781186546));
#385=DIRECTION('',(0.,-1.,0.));
#386=DIRECTION('center_axis',(0.,1.,0.));
#387=DIRECTION('ref_axis',(-0.707106781186548,0.,-0.707106781186548));
#388=DIRECTION('center_axis',(0.,-1.,0.));
#389=DIRECTION('ref_axis',(-0.707106781186548,0.,-0.707106781186548));
#390=DIRECTION('',(0.,-1.,0.));
#391=DIRECTION('',(0.,1.,0.));
#392=DIRECTION('center_axis',(-1.,0.,0.));
#393=DIRECTION('ref_axis',(0.,0.,1.));
#394=DIRECTION('',(0.,-1.,0.));
#395=DIRECTION('',(0.,0.,1.));
#396=DIRECTION('center_axis',(0.,1.,0.));
#397=DIRECTION('ref_axis',(-0.707106781186549,0.,0.707106781186546));
#398=DIRECTION('center_axis',(0.,-1.,0.));
#399=DIRECTION('ref_axis',(-0.707106781186549,0.,0.707106781186546));
#400=DIRECTION('',(0.,1.,0.));
#401=DIRECTION('center_axis',(0.,1.,0.));
#402=DIRECTION('ref_axis',(1.,0.,0.));
#403=DIRECTION('center_axis',(0.,-1.,0.));
#404=DIRECTION('ref_axis',(1.,0.,0.));
#405=DIRECTION('',(0.,-1.,0.));
#406=DIRECTION('center_axis',(0.,1.,0.));
#407=DIRECTION('ref_axis',(1.,0.,0.));
#408=DIRECTION('center_axis',(0.,-1.,0.));
#409=DIRECTION('ref_axis',(1.,0.,0.));
#410=DIRECTION('',(0.,-1.,0.));
#411=DIRECTION('center_axis',(0.,1.,0.));
#412=DIRECTION('ref_axis',(1.,0.,0.));
#413=DIRECTION('center_axis',(0.,-1.,0.));
#414=DIRECTION('ref_axis',(1.,0.,0.));
#415=DIRECTION('',(0.,-1.,0.));
#416=DIRECTION('center_axis',(0.,1.,0.));
#417=DIRECTION('ref_axis',(1.,0.,0.));
#418=DIRECTION('center_axis',(0.,-1.,0.));
#419=DIRECTION('ref_axis',(1.,0.,0.));
#420=DIRECTION('',(0.,-1.,0.));
#421=DIRECTION('center_axis',(0.,1.,0.));
#422=DIRECTION('ref_axis',(1.,0.,0.));
#423=DIRECTION('center_axis',(0.,-1.,0.));
#424=DIRECTION('ref_axis',(1.,0.,0.));
#425=DIRECTION('',(0.,-1.,0.));
#426=DIRECTION('center_axis',(0.,0.,-1.));
#427=DIRECTION('ref_axis',(-1.,0.,0.));
#428=DIRECTION('',(-1.,0.,0.));
#429=DIRECTION('center_axis',(0.,0.,1.));
#430=DIRECTION('ref_axis',(1.,0.,0.));
#431=DIRECTION('',(1.,0.,0.));
#432=DIRECTION('center_axis',(0.,1.,0.));
#433=DIRECTION('ref_axis',(1.,0.,0.));
#434=CARTESIAN_POINT('',(0.,0.,0.));
#435=CARTESIAN_POINT('Origin',(28.,0.,-8.));
#436=CARTESIAN_POINT('',(28.,3.,-10.));
#437=CARTESIAN_POINT('',(30.,3.,-8.));
#438=CARTESIAN_POINT('Origin',(28.,3.,-8.));
#439=CARTESIAN_POINT('',(30.,0.,-8.));
#440=CARTESIAN_POINT('',(30.,0.,-8.));
#441=CARTESIAN_POINT('',(28.,0.,-10.));
#442=CARTESIAN_POINT('Origin',(28.,0.,-8.));
#443=CARTESIAN_POINT('',(28.,0.,-10.));
#444=CARTESIAN_POINT('Origin',(10.,0.,16.5));
#445=CARTESIAN_POINT('',(30.,0.,41.));
#446=CARTESIAN_POINT('',(30.,0.,43.));
#447=CARTESIAN_POINT('',(28.,0.,43.));
#448=CARTESIAN_POINT('Origin',(28.,0.,41.));
#449=CARTESIAN_POINT('',(-8.,0.,43.));
#450=CARTESIAN_POINT('',(-10.,0.,43.));
#451=CARTESIAN_POINT('',(-10.,0.,41.));
#452=CARTESIAN_POINT('Origin',(-8.,0.,41.));
#453=CARTESIAN_POINT('',(-10.,0.,-8.));
#454=CARTESIAN_POINT('',(-10.,0.,0.));
#455=CARTESIAN_POINT('',(-8.,0.,-10.));
#456=CARTESIAN_POINT('Origin',(-8.,0.,-8.));
#457=CARTESIAN_POINT('',(-10.,0.,-10.));
#458=CARTESIAN_POINT('',(20.9,0.,2.57175827820944E-16));
#459=CARTESIAN_POINT('Origin',(23.,0.,0.));
#460=CARTESIAN_POINT('',(12.9,0.,2.57175827820944E-16));
#461=CARTESIAN_POINT('Origin',(15.,0.,0.));
#462=CARTESIAN_POINT('',(-2.1,0.,16.5));
#463=CARTESIAN_POINT('Origin',(0.,0.,16.5));
#464=CARTESIAN_POINT('',(20.9,0.,33.));
#465=CARTESIAN_POINT('Origin',(23.,0.,33.));
#466=CARTESIAN_POINT('',(12.9,0.,33.));
#467=CARTESIAN_POINT('Origin',(15.,0.,33.));
#468=CARTESIAN_POINT('Origin',(30.,0.,43.));
#469=CARTESIAN_POINT('',(30.,3.,41.));
#470=CARTESIAN_POINT('',(30.,3.,43.));
#471=CARTESIAN_POINT('',(30.,0.,41.));
#472=CARTESIAN_POINT('Origin',(28.,0.,41.));
#473=CARTESIAN_POINT('',(28.,3.,43.));
#474=CARTESIAN_POINT('Origin',(28.,3.,41.));
#475=CARTESIAN_POINT('',(28.,0.,43.));
#476=CARTESIAN_POINT('Origin',(-8.,0.,-8.));
#477=CARTESIAN_POINT('',(-10.,3.,-8.));
#478=CARTESIAN_POINT('',(-8.,3.,-10.));
#479=CARTESIAN_POINT('Origin',(-8.,3.,-8.));
#480=CARTESIAN_POINT('',(-8.,0.,-10.));
#481=CARTESIAN_POINT('',(-10.,0.,-8.));
#482=CARTESIAN_POINT('Origin',(-10.,0.,-10.));
#483=CARTESIAN_POINT('',(-10.,3.,41.));
#484=CARTESIAN_POINT('',(-10.,0.,41.));
#485=CARTESIAN_POINT('',(-10.,3.,0.));
#486=CARTESIAN_POINT('Origin',(-8.,0.,41.));
#487=CARTESIAN_POINT('',(-8.,3.,43.));
#488=CARTESIAN_POINT('Origin',(-8.,3.,41.));
#489=CARTESIAN_POINT('',(-8.,0.,43.));
#490=CARTESIAN_POINT('Origin',(15.,0.,33.));
#491=CARTESIAN_POINT('',(12.9,3.,33.));
#492=CARTESIAN_POINT('Origin',(15.,3.,33.));
#493=CARTESIAN_POINT('',(12.9,0.,33.));
#494=CARTESIAN_POINT('Origin',(23.,0.,33.));
#495=CARTESIAN_POINT('',(20.9,3.,33.));
#496=CARTESIAN_POINT('Origin',(23.,3.,33.));
#497=CARTESIAN_POINT('',(20.9,0.,33.));
#498=CARTESIAN_POINT('Origin',(0.,0.,16.5));
#499=CARTESIAN_POINT('',(-2.1,3.,16.5));
#500=CARTESIAN_POINT('Origin',(0.,3.,16.5));
#501=CARTESIAN_POINT('',(-2.1,0.,16.5));
#502=CARTESIAN_POINT('Origin',(15.,0.,0.));
#503=CARTESIAN_POINT('',(12.9,3.,2.57175827820944E-16));
#504=CARTESIAN_POINT('Origin',(15.,3.,0.));
#505=CARTESIAN_POINT('',(12.9,0.,2.57175827820944E-16));
#506=CARTESIAN_POINT('Origin',(23.,0.,0.));
#507=CARTESIAN_POINT('',(20.9,3.,2.57175827820944E-16));
#508=CARTESIAN_POINT('Origin',(23.,3.,0.));
#509=CARTESIAN_POINT('',(20.9,0.,2.57175827820944E-16));
#510=CARTESIAN_POINT('Origin',(30.,0.,-10.));
#511=CARTESIAN_POINT('',(-10.,3.,-10.));
#512=CARTESIAN_POINT('Origin',(-10.,0.,43.));
#513=CARTESIAN_POINT('',(-10.,3.,43.));
#514=CARTESIAN_POINT('Origin',(10.,3.,16.5));
#515=UNCERTAINTY_MEASURE_WITH_UNIT(LENGTH_MEASURE(0.01),#519,
'DISTANCE_ACCURACY_VALUE',
'Maximum model space distance between geometric entities at asserted c
onnectivities');
#516=UNCERTAINTY_MEASURE_WITH_UNIT(LENGTH_MEASURE(0.01),#519,
'DISTANCE_ACCURACY_VALUE',
'Maximum model space distance between geometric entities at asserted c
onnectivities');
#517=(
GEOMETRIC_REPRESENTATION_CONTEXT(3)
GLOBAL_UNCERTAINTY_ASSIGNED_CONTEXT((#515))
GLOBAL_UNIT_ASSIGNED_CONTEXT((#519,#521,#522))
REPRESENTATION_CONTEXT('','3D')
);
#518=(
GEOMETRIC_REPRESENTATION_CONTEXT(3)
GLOBAL_UNCERTAINTY_ASSIGNED_CONTEXT((#516))
GLOBAL_UNIT_ASSIGNED_CONTEXT((#519,#521,#522))
REPRESENTATION_CONTEXT('','3D')
);
#519=(
LENGTH_UNIT()
NAMED_UNIT(*)
SI_UNIT(.MILLI.,.METRE.)
);
#520=(
LENGTH_UNIT()
NAMED_UNIT(*)
SI_UNIT($,.METRE.)
);
#521=(
NAMED_UNIT(*)
PLANE_ANGLE_UNIT()
SI_UNIT($,.RADIAN.)
);
#522=(
NAMED_UNIT(*)
SI_UNIT($,.STERADIAN.)
SOLID_ANGLE_UNIT()
);
#523=SHAPE_DEFINITION_REPRESENTATION(#524,#525);
#524=PRODUCT_DEFINITION_SHAPE('',$,#527);
#525=SHAPE_REPRESENTATION('',(#311),#517);
#526=PRODUCT_DEFINITION_CONTEXT('part definition',#531,'design');
#527=PRODUCT_DEFINITION('2026-09-23-11-40-54-190','brackets',#528,#526);
#528=PRODUCT_DEFINITION_FORMATION('',$,#533);
#529=PRODUCT_RELATED_PRODUCT_CATEGORY('brackets','brackets',(#533));
#530=APPLICATION_PROTOCOL_DEFINITION('international standard',
'automotive_design',2009,#531);
#531=APPLICATION_CONTEXT(
'Core Data for Automotive Mechanical Design Process');
#532=PRODUCT_CONTEXT('part definition',#531,'mechanical');
#533=PRODUCT('2026-09-23-11-40-54-190','brackets',$,(#532));
#534=PRESENTATION_STYLE_ASSIGNMENT((#536));
#535=PRESENTATION_STYLE_ASSIGNMENT((#537));
#536=SURFACE_STYLE_USAGE(.BOTH.,#538);
#537=SURFACE_STYLE_USAGE(.BOTH.,#539);
#538=SURFACE_SIDE_STYLE('',(#540));
#539=SURFACE_SIDE_STYLE('',(#541));
#540=SURFACE_STYLE_FILL_AREA(#542);
#541=SURFACE_STYLE_FILL_AREA(#543);
#542=FILL_AREA_STYLE('Steel - Satin',(#544));
#543=FILL_AREA_STYLE('EPX 82 (with Carbon M2 M3 L1 3D Printers)',(#545));
#544=FILL_AREA_STYLE_COLOUR('Steel - Satin',#546);
#545=FILL_AREA_STYLE_COLOUR('EPX 82 (with Carbon M2 M3 L1 3D Printers)',
#547);
#546=COLOUR_RGB('Steel - Satin',0.627450980392157,0.627450980392157,0.627450980392157);
#547=COLOUR_RGB('EPX 82 (with Carbon M2 M3 L1 3D Printers)',0.247058823529412,
0.247058823529412,0.247058823529412);
ENDSEC;
END-ISO-10303-21;
