ISO-10303-21;
HEADER;
/* Generated by software containing ST-Developer
 * from STEP Tools, Inc. (www.steptools.com) 
 */

FILE_DESCRIPTION(
/* description */ (''),
/* implementation_level */ '2;1');

FILE_NAME(
/* name */ 'Mask_layer.step',
/* time_stamp */ '2026-10-06T13:46:01+03:00',
/* author */ (''),
/* organization */ (''),
/* preprocessor_version */ 'ST-DEVELOPER v20.2',
/* originating_system */ 'Autodesk Translation Framework v15.15.0.0',
/* authorisation */ '');

FILE_SCHEMA (('AUTOMOTIVE_DESIGN { 1 0 10303 214 3 1 1 }'));
ENDSEC;

DATA;
#10=MECHANICAL_DESIGN_GEOMETRIC_PRESENTATION_REPRESENTATION('',(#13),#1703);
#11=SHAPE_REPRESENTATION_RELATIONSHIP('SRR','None',#1709,#12);
#12=ADVANCED_BREP_SHAPE_REPRESENTATION('',(#14),#1702);
#13=STYLED_ITEM('',(#1718),#14);
#14=MANIFOLD_SOLID_BREP('Body1',#1070);
#15=CYLINDRICAL_SURFACE('',#1112,23.2045454545339);
#16=CYLINDRICAL_SURFACE('',#1120,23.9545454545336);
#17=CYLINDRICAL_SURFACE('',#1126,22.4545454545336);
#18=ELLIPSE('',#1103,24.015427825566,23.2045454545338);
#19=FACE_BOUND('',#88,.T.);
#20=FACE_BOUND('',#90,.T.);
#21=CIRCLE('',#1079,22.4545454545336);
#22=CIRCLE('',#1080,23.9545454545336);
#23=CIRCLE('',#1082,23.2045454545339);
#24=CIRCLE('',#1083,22.4545454545336);
#25=CIRCLE('',#1113,23.2045454545339);
#26=CIRCLE('',#1115,23.9545454545336);
#27=FACE_OUTER_BOUND('',#81,.T.);
#28=FACE_OUTER_BOUND('',#82,.T.);
#29=FACE_OUTER_BOUND('',#83,.T.);
#30=FACE_OUTER_BOUND('',#84,.T.);
#31=FACE_OUTER_BOUND('',#85,.T.);
#32=FACE_OUTER_BOUND('',#86,.T.);
#33=FACE_OUTER_BOUND('',#87,.T.);
#34=FACE_OUTER_BOUND('',#89,.T.);
#35=FACE_OUTER_BOUND('',#91,.T.);
#36=FACE_OUTER_BOUND('',#92,.T.);
#37=FACE_OUTER_BOUND('',#93,.T.);
#38=FACE_OUTER_BOUND('',#94,.T.);
#39=FACE_OUTER_BOUND('',#95,.T.);
#40=FACE_OUTER_BOUND('',#96,.T.);
#41=FACE_OUTER_BOUND('',#97,.T.);
#42=FACE_OUTER_BOUND('',#98,.T.);
#43=FACE_OUTER_BOUND('',#99,.T.);
#44=FACE_OUTER_BOUND('',#100,.T.);
#45=FACE_OUTER_BOUND('',#101,.T.);
#46=FACE_OUTER_BOUND('',#102,.T.);
#47=FACE_OUTER_BOUND('',#103,.T.);
#48=FACE_OUTER_BOUND('',#104,.T.);
#49=FACE_OUTER_BOUND('',#105,.T.);
#50=FACE_OUTER_BOUND('',#106,.T.);
#51=FACE_OUTER_BOUND('',#107,.T.);
#52=FACE_OUTER_BOUND('',#108,.T.);
#53=FACE_OUTER_BOUND('',#109,.T.);
#54=FACE_OUTER_BOUND('',#110,.T.);
#55=FACE_OUTER_BOUND('',#111,.T.);
#56=FACE_OUTER_BOUND('',#112,.T.);
#57=FACE_OUTER_BOUND('',#113,.T.);
#58=FACE_OUTER_BOUND('',#114,.T.);
#59=FACE_OUTER_BOUND('',#115,.T.);
#60=FACE_OUTER_BOUND('',#116,.T.);
#61=FACE_OUTER_BOUND('',#117,.T.);
#62=FACE_OUTER_BOUND('',#118,.T.);
#63=FACE_OUTER_BOUND('',#119,.T.);
#64=FACE_OUTER_BOUND('',#120,.T.);
#65=FACE_OUTER_BOUND('',#121,.T.);
#66=FACE_OUTER_BOUND('',#122,.T.);
#67=FACE_OUTER_BOUND('',#123,.T.);
#68=FACE_OUTER_BOUND('',#124,.T.);
#69=FACE_OUTER_BOUND('',#125,.T.);
#70=FACE_OUTER_BOUND('',#126,.T.);
#71=FACE_OUTER_BOUND('',#127,.T.);
#72=FACE_OUTER_BOUND('',#128,.T.);
#73=FACE_OUTER_BOUND('',#129,.T.);
#74=FACE_OUTER_BOUND('',#130,.T.);
#75=FACE_OUTER_BOUND('',#131,.T.);
#76=FACE_OUTER_BOUND('',#132,.T.);
#77=FACE_OUTER_BOUND('',#133,.T.);
#78=FACE_OUTER_BOUND('',#134,.T.);
#79=FACE_OUTER_BOUND('',#135,.T.);
#80=FACE_OUTER_BOUND('',#136,.T.);
#81=EDGE_LOOP('',(#667,#668,#669,#670));
#82=EDGE_LOOP('',(#671,#672,#673,#674));
#83=EDGE_LOOP('',(#675,#676,#677,#678));
#84=EDGE_LOOP('',(#679,#680,#681,#682));
#85=EDGE_LOOP('',(#683,#684,#685,#686));
#86=EDGE_LOOP('',(#687,#688,#689,#690,#691,#692,#693,#694));
#87=EDGE_LOOP('',(#695,#696,#697,#698,#699,#700,#701,#702,#703,#704,#705,
#706));
#88=EDGE_LOOP('',(#707,#708,#709,#710,#711,#712,#713,#714,#715,#716,#717,
#718,#719,#720,#721,#722));
#89=EDGE_LOOP('',(#723,#724,#725,#726,#727,#728,#729,#730,#731,#732,#733,
#734,#735,#736,#737,#738,#739,#740,#741,#742,#743,#744,#745,#746,#747,#748,
#749,#750));
#90=EDGE_LOOP('',(#751,#752,#753,#754,#755,#756,#757,#758));
#91=EDGE_LOOP('',(#759,#760,#761,#762,#763,#764,#765,#766));
#92=EDGE_LOOP('',(#767,#768,#769,#770,#771,#772,#773,#774,#775,#776,#777,
#778));
#93=EDGE_LOOP('',(#779,#780,#781,#782));
#94=EDGE_LOOP('',(#783,#784,#785,#786));
#95=EDGE_LOOP('',(#787,#788,#789,#790));
#96=EDGE_LOOP('',(#791,#792,#793,#794));
#97=EDGE_LOOP('',(#795,#796,#797,#798));
#98=EDGE_LOOP('',(#799,#800,#801,#802));
#99=EDGE_LOOP('',(#803,#804,#805,#806));
#100=EDGE_LOOP('',(#807,#808,#809,#810));
#101=EDGE_LOOP('',(#811,#812,#813,#814));
#102=EDGE_LOOP('',(#815,#816,#817,#818));
#103=EDGE_LOOP('',(#819,#820,#821,#822));
#104=EDGE_LOOP('',(#823,#824,#825,#826));
#105=EDGE_LOOP('',(#827,#828,#829,#830));
#106=EDGE_LOOP('',(#831,#832,#833,#834));
#107=EDGE_LOOP('',(#835,#836,#837,#838));
#108=EDGE_LOOP('',(#839,#840,#841,#842));
#109=EDGE_LOOP('',(#843,#844,#845,#846,#847,#848));
#110=EDGE_LOOP('',(#849,#850,#851,#852,#853,#854,#855,#856));
#111=EDGE_LOOP('',(#857,#858,#859,#860,#861));
#112=EDGE_LOOP('',(#862,#863,#864,#865));
#113=EDGE_LOOP('',(#866,#867,#868,#869));
#114=EDGE_LOOP('',(#870,#871,#872,#873));
#115=EDGE_LOOP('',(#874,#875,#876,#877));
#116=EDGE_LOOP('',(#878,#879,#880,#881));
#117=EDGE_LOOP('',(#882,#883,#884,#885));
#118=EDGE_LOOP('',(#886,#887,#888,#889));
#119=EDGE_LOOP('',(#890,#891,#892,#893));
#120=EDGE_LOOP('',(#894,#895,#896,#897));
#121=EDGE_LOOP('',(#898,#899,#900,#901));
#122=EDGE_LOOP('',(#902,#903,#904,#905));
#123=EDGE_LOOP('',(#906,#907,#908,#909));
#124=EDGE_LOOP('',(#910,#911,#912,#913));
#125=EDGE_LOOP('',(#914,#915,#916,#917));
#126=EDGE_LOOP('',(#918,#919,#920,#921));
#127=EDGE_LOOP('',(#922,#923,#924,#925));
#128=EDGE_LOOP('',(#926,#927,#928,#929,#930));
#129=EDGE_LOOP('',(#931,#932,#933,#934));
#130=EDGE_LOOP('',(#935,#936,#937,#938));
#131=EDGE_LOOP('',(#939,#940,#941,#942,#943,#944));
#132=EDGE_LOOP('',(#945,#946,#947,#948));
#133=EDGE_LOOP('',(#949,#950,#951,#952));
#134=EDGE_LOOP('',(#953,#954,#955,#956));
#135=EDGE_LOOP('',(#957,#958,#959,#960));
#136=EDGE_LOOP('',(#961,#962,#963,#964));
#137=LINE('',#1403,#279);
#138=LINE('',#1405,#280);
#139=LINE('',#1407,#281);
#140=LINE('',#1408,#282);
#141=LINE('',#1411,#283);
#142=LINE('',#1413,#284);
#143=LINE('',#1414,#285);
#144=LINE('',#1418,#286);
#145=LINE('',#1420,#287);
#146=LINE('',#1422,#288);
#147=LINE('',#1423,#289);
#148=LINE('',#1426,#290);
#149=LINE('',#1428,#291);
#150=LINE('',#1429,#292);
#151=LINE('',#1431,#293);
#152=LINE('',#1432,#294);
#153=LINE('',#1435,#295);
#154=LINE('',#1437,#296);
#155=LINE('',#1439,#297);
#156=LINE('',#1441,#298);
#157=LINE('',#1443,#299);
#158=LINE('',#1445,#300);
#159=LINE('',#1446,#301);
#160=LINE('',#1449,#302);
#161=LINE('',#1451,#303);
#162=LINE('',#1453,#304);
#163=LINE('',#1455,#305);
#164=LINE('',#1457,#306);
#165=LINE('',#1458,#307);
#166=LINE('',#1461,#308);
#167=LINE('',#1463,#309);
#168=LINE('',#1465,#310);
#169=LINE('',#1467,#311);
#170=LINE('',#1469,#312);
#171=LINE('',#1471,#313);
#172=LINE('',#1473,#314);
#173=LINE('',#1475,#315);
#174=LINE('',#1477,#316);
#175=LINE('',#1479,#317);
#176=LINE('',#1481,#318);
#177=LINE('',#1483,#319);
#178=LINE('',#1487,#320);
#179=LINE('',#1490,#321);
#180=LINE('',#1493,#322);
#181=LINE('',#1495,#323);
#182=LINE('',#1496,#324);
#183=LINE('',#1498,#325);
#184=LINE('',#1500,#326);
#185=LINE('',#1502,#327);
#186=LINE('',#1504,#328);
#187=LINE('',#1506,#329);
#188=LINE('',#1508,#330);
#189=LINE('',#1510,#331);
#190=LINE('',#1512,#332);
#191=LINE('',#1514,#333);
#192=LINE('',#1516,#334);
#193=LINE('',#1518,#335);
#194=LINE('',#1520,#336);
#195=LINE('',#1522,#337);
#196=LINE('',#1524,#338);
#197=LINE('',#1526,#339);
#198=LINE('',#1528,#340);
#199=LINE('',#1530,#341);
#200=LINE('',#1531,#342);
#201=LINE('',#1536,#343);
#202=LINE('',#1540,#344);
#203=LINE('',#1542,#345);
#204=LINE('',#1544,#346);
#205=LINE('',#1546,#347);
#206=LINE('',#1547,#348);
#207=LINE('',#1550,#349);
#208=LINE('',#1552,#350);
#209=LINE('',#1553,#351);
#210=LINE('',#1554,#352);
#211=LINE('',#1556,#353);
#212=LINE('',#1558,#354);
#213=LINE('',#1560,#355);
#214=LINE('',#1561,#356);
#215=LINE('',#1563,#357);
#216=LINE('',#1565,#358);
#217=LINE('',#1566,#359);
#218=LINE('',#1567,#360);
#219=LINE('',#1569,#361);
#220=LINE('',#1572,#362);
#221=LINE('',#1576,#363);
#222=LINE('',#1577,#364);
#223=LINE('',#1580,#365);
#224=LINE('',#1581,#366);
#225=LINE('',#1584,#367);
#226=LINE('',#1585,#368);
#227=LINE('',#1588,#369);
#228=LINE('',#1589,#370);
#229=LINE('',#1591,#371);
#230=LINE('',#1594,#372);
#231=LINE('',#1598,#373);
#232=LINE('',#1599,#374);
#233=LINE('',#1602,#375);
#234=LINE('',#1603,#376);
#235=LINE('',#1605,#377);
#236=LINE('',#1610,#378);
#237=LINE('',#1612,#379);
#238=LINE('',#1614,#380);
#239=LINE('',#1616,#381);
#240=LINE('',#1619,#382);
#241=LINE('',#1621,#383);
#242=LINE('',#1623,#384);
#243=LINE('',#1625,#385);
#244=LINE('',#1627,#386);
#245=LINE('',#1628,#387);
#246=LINE('',#1631,#388);
#247=LINE('',#1633,#389);
#248=LINE('',#1634,#390);
#249=LINE('',#1636,#391);
#250=LINE('',#1637,#392);
#251=LINE('',#1639,#393);
#252=LINE('',#1640,#394);
#253=LINE('',#1642,#395);
#254=LINE('',#1643,#396);
#255=LINE('',#1647,#397);
#256=LINE('',#1648,#398);
#257=LINE('',#1649,#399);
#258=LINE('',#1652,#400);
#259=LINE('',#1653,#401);
#260=LINE('',#1656,#402);
#261=LINE('',#1657,#403);
#262=LINE('',#1661,#404);
#263=LINE('',#1665,#405);
#264=LINE('',#1667,#406);
#265=LINE('',#1669,#407);
#266=LINE('',#1671,#408);
#267=LINE('',#1672,#409);
#268=LINE('',#1675,#410);
#269=LINE('',#1676,#411);
#270=LINE('',#1678,#412);
#271=LINE('',#1682,#413);
#272=LINE('',#1684,#414);
#273=LINE('',#1686,#415);
#274=LINE('',#1691,#416);
#275=LINE('',#1692,#417);
#276=LINE('',#1695,#418);
#277=LINE('',#1696,#419);
#278=LINE('',#1698,#420);
#279=VECTOR('',#1137,10.);
#280=VECTOR('',#1138,10.);
#281=VECTOR('',#1139,10.);
#282=VECTOR('',#1140,10.);
#283=VECTOR('',#1143,10.);
#284=VECTOR('',#1144,10.);
#285=VECTOR('',#1145,10.);
#286=VECTOR('',#1148,10.);
#287=VECTOR('',#1149,10.);
#288=VECTOR('',#1150,10.);
#289=VECTOR('',#1151,10.);
#290=VECTOR('',#1154,10.);
#291=VECTOR('',#1155,10.);
#292=VECTOR('',#1156,10.);
#293=VECTOR('',#1159,10.);
#294=VECTOR('',#1160,10.);
#295=VECTOR('',#1163,10.);
#296=VECTOR('',#1164,10.);
#297=VECTOR('',#1165,10.);
#298=VECTOR('',#1166,10.);
#299=VECTOR('',#1167,10.);
#300=VECTOR('',#1168,10.);
#301=VECTOR('',#1169,10.);
#302=VECTOR('',#1172,10.);
#303=VECTOR('',#1173,10.);
#304=VECTOR('',#1174,10.);
#305=VECTOR('',#1175,10.);
#306=VECTOR('',#1176,10.);
#307=VECTOR('',#1177,10.);
#308=VECTOR('',#1178,10.);
#309=VECTOR('',#1179,10.);
#310=VECTOR('',#1180,10.);
#311=VECTOR('',#1181,10.);
#312=VECTOR('',#1182,10.);
#313=VECTOR('',#1183,10.);
#314=VECTOR('',#1184,10.);
#315=VECTOR('',#1185,10.);
#316=VECTOR('',#1186,10.);
#317=VECTOR('',#1187,10.);
#318=VECTOR('',#1188,10.);
#319=VECTOR('',#1189,10.);
#320=VECTOR('',#1192,10.);
#321=VECTOR('',#1195,10.);
#322=VECTOR('',#1198,10.);
#323=VECTOR('',#1199,10.);
#324=VECTOR('',#1200,10.);
#325=VECTOR('',#1201,10.);
#326=VECTOR('',#1202,10.);
#327=VECTOR('',#1203,10.);
#328=VECTOR('',#1204,10.);
#329=VECTOR('',#1205,10.);
#330=VECTOR('',#1206,10.);
#331=VECTOR('',#1207,10.);
#332=VECTOR('',#1208,10.);
#333=VECTOR('',#1209,10.);
#334=VECTOR('',#1210,10.);
#335=VECTOR('',#1211,10.);
#336=VECTOR('',#1212,10.);
#337=VECTOR('',#1213,10.);
#338=VECTOR('',#1214,10.);
#339=VECTOR('',#1215,10.);
#340=VECTOR('',#1216,10.);
#341=VECTOR('',#1217,10.);
#342=VECTOR('',#1218,10.);
#343=VECTOR('',#1221,10.);
#344=VECTOR('',#1224,10.);
#345=VECTOR('',#1225,10.);
#346=VECTOR('',#1226,10.);
#347=VECTOR('',#1227,10.);
#348=VECTOR('',#1228,10.);
#349=VECTOR('',#1231,10.);
#350=VECTOR('',#1232,10.);
#351=VECTOR('',#1233,10.);
#352=VECTOR('',#1234,10.);
#353=VECTOR('',#1237,10.);
#354=VECTOR('',#1238,10.);
#355=VECTOR('',#1239,10.);
#356=VECTOR('',#1240,10.);
#357=VECTOR('',#1241,10.);
#358=VECTOR('',#1242,10.);
#359=VECTOR('',#1243,10.);
#360=VECTOR('',#1244,10.);
#361=VECTOR('',#1247,10.);
#362=VECTOR('',#1252,10.);
#363=VECTOR('',#1257,10.);
#364=VECTOR('',#1258,10.);
#365=VECTOR('',#1261,10.);
#366=VECTOR('',#1262,10.);
#367=VECTOR('',#1265,10.);
#368=VECTOR('',#1266,10.);
#369=VECTOR('',#1269,10.);
#370=VECTOR('',#1270,10.);
#371=VECTOR('',#1273,10.);
#372=VECTOR('',#1278,10.);
#373=VECTOR('',#1283,10.);
#374=VECTOR('',#1284,10.);
#375=VECTOR('',#1287,10.);
#376=VECTOR('',#1288,10.);
#377=VECTOR('',#1291,10.);
#378=VECTOR('',#1296,10.);
#379=VECTOR('',#1297,10.);
#380=VECTOR('',#1298,10.);
#381=VECTOR('',#1301,10.);
#382=VECTOR('',#1304,10.);
#383=VECTOR('',#1305,10.);
#384=VECTOR('',#1306,10.);
#385=VECTOR('',#1307,10.);
#386=VECTOR('',#1308,10.);
#387=VECTOR('',#1309,10.);
#388=VECTOR('',#1312,10.);
#389=VECTOR('',#1313,10.);
#390=VECTOR('',#1314,10.);
#391=VECTOR('',#1317,10.);
#392=VECTOR('',#1318,10.);
#393=VECTOR('',#1321,10.);
#394=VECTOR('',#1322,10.);
#395=VECTOR('',#1325,10.);
#396=VECTOR('',#1326,10.);
#397=VECTOR('',#1329,10.);
#398=VECTOR('',#1330,10.);
#399=VECTOR('',#1331,10.);
#400=VECTOR('',#1334,10.);
#401=VECTOR('',#1335,10.);
#402=VECTOR('',#1338,10.);
#403=VECTOR('',#1339,10.);
#404=VECTOR('',#1344,10.);
#405=VECTOR('',#1349,10.);
#406=VECTOR('',#1352,10.);
#407=VECTOR('',#1355,10.);
#408=VECTOR('',#1358,10.);
#409=VECTOR('',#1359,10.);
#410=VECTOR('',#1364,10.);
#411=VECTOR('',#1365,10.);
#412=VECTOR('',#1368,10.);
#413=VECTOR('',#1375,10.);
#414=VECTOR('',#1378,10.);
#415=VECTOR('',#1381,10.);
#416=VECTOR('',#1388,10.);
#417=VECTOR('',#1389,10.);
#418=VECTOR('',#1392,10.);
#419=VECTOR('',#1393,10.);
#420=VECTOR('',#1396,10.);
#421=VERTEX_POINT('',#1401);
#422=VERTEX_POINT('',#1402);
#423=VERTEX_POINT('',#1404);
#424=VERTEX_POINT('',#1406);
#425=VERTEX_POINT('',#1410);
#426=VERTEX_POINT('',#1412);
#427=VERTEX_POINT('',#1416);
#428=VERTEX_POINT('',#1417);
#429=VERTEX_POINT('',#1419);
#430=VERTEX_POINT('',#1421);
#431=VERTEX_POINT('',#1425);
#432=VERTEX_POINT('',#1427);
#433=VERTEX_POINT('',#1434);
#434=VERTEX_POINT('',#1436);
#435=VERTEX_POINT('',#1438);
#436=VERTEX_POINT('',#1440);
#437=VERTEX_POINT('',#1442);
#438=VERTEX_POINT('',#1444);
#439=VERTEX_POINT('',#1448);
#440=VERTEX_POINT('',#1450);
#441=VERTEX_POINT('',#1452);
#442=VERTEX_POINT('',#1454);
#443=VERTEX_POINT('',#1456);
#444=VERTEX_POINT('',#1459);
#445=VERTEX_POINT('',#1460);
#446=VERTEX_POINT('',#1462);
#447=VERTEX_POINT('',#1464);
#448=VERTEX_POINT('',#1466);
#449=VERTEX_POINT('',#1468);
#450=VERTEX_POINT('',#1470);
#451=VERTEX_POINT('',#1472);
#452=VERTEX_POINT('',#1474);
#453=VERTEX_POINT('',#1476);
#454=VERTEX_POINT('',#1478);
#455=VERTEX_POINT('',#1480);
#456=VERTEX_POINT('',#1482);
#457=VERTEX_POINT('',#1484);
#458=VERTEX_POINT('',#1486);
#459=VERTEX_POINT('',#1488);
#460=VERTEX_POINT('',#1492);
#461=VERTEX_POINT('',#1494);
#462=VERTEX_POINT('',#1497);
#463=VERTEX_POINT('',#1499);
#464=VERTEX_POINT('',#1501);
#465=VERTEX_POINT('',#1503);
#466=VERTEX_POINT('',#1505);
#467=VERTEX_POINT('',#1507);
#468=VERTEX_POINT('',#1509);
#469=VERTEX_POINT('',#1511);
#470=VERTEX_POINT('',#1513);
#471=VERTEX_POINT('',#1515);
#472=VERTEX_POINT('',#1517);
#473=VERTEX_POINT('',#1519);
#474=VERTEX_POINT('',#1521);
#475=VERTEX_POINT('',#1523);
#476=VERTEX_POINT('',#1525);
#477=VERTEX_POINT('',#1527);
#478=VERTEX_POINT('',#1529);
#479=VERTEX_POINT('',#1532);
#480=VERTEX_POINT('',#1533);
#481=VERTEX_POINT('',#1535);
#482=VERTEX_POINT('',#1537);
#483=VERTEX_POINT('',#1539);
#484=VERTEX_POINT('',#1541);
#485=VERTEX_POINT('',#1543);
#486=VERTEX_POINT('',#1545);
#487=VERTEX_POINT('',#1549);
#488=VERTEX_POINT('',#1551);
#489=VERTEX_POINT('',#1557);
#490=VERTEX_POINT('',#1559);
#491=VERTEX_POINT('',#1562);
#492=VERTEX_POINT('',#1564);
#493=VERTEX_POINT('',#1575);
#494=VERTEX_POINT('',#1579);
#495=VERTEX_POINT('',#1583);
#496=VERTEX_POINT('',#1587);
#497=VERTEX_POINT('',#1597);
#498=VERTEX_POINT('',#1601);
#499=VERTEX_POINT('',#1608);
#500=VERTEX_POINT('',#1609);
#501=VERTEX_POINT('',#1611);
#502=VERTEX_POINT('',#1613);
#503=VERTEX_POINT('',#1618);
#504=VERTEX_POINT('',#1620);
#505=VERTEX_POINT('',#1622);
#506=VERTEX_POINT('',#1624);
#507=VERTEX_POINT('',#1626);
#508=VERTEX_POINT('',#1630);
#509=VERTEX_POINT('',#1632);
#510=VERTEX_POINT('',#1645);
#511=VERTEX_POINT('',#1646);
#512=VERTEX_POINT('',#1651);
#513=VERTEX_POINT('',#1655);
#514=VERTEX_POINT('',#1659);
#515=VERTEX_POINT('',#1663);
#516=VERTEX_POINT('',#1690);
#517=VERTEX_POINT('',#1694);
#518=EDGE_CURVE('',#421,#422,#137,.T.);
#519=EDGE_CURVE('',#423,#422,#138,.T.);
#520=EDGE_CURVE('',#424,#423,#139,.T.);
#521=EDGE_CURVE('',#421,#424,#140,.T.);
#522=EDGE_CURVE('',#425,#421,#141,.T.);
#523=EDGE_CURVE('',#426,#424,#142,.T.);
#524=EDGE_CURVE('',#425,#426,#143,.T.);
#525=EDGE_CURVE('',#427,#428,#144,.T.);
#526=EDGE_CURVE('',#428,#429,#145,.T.);
#527=EDGE_CURVE('',#430,#429,#146,.T.);
#528=EDGE_CURVE('',#427,#430,#147,.T.);
#529=EDGE_CURVE('',#431,#427,#148,.T.);
#530=EDGE_CURVE('',#432,#430,#149,.T.);
#531=EDGE_CURVE('',#431,#432,#150,.T.);
#532=EDGE_CURVE('',#429,#426,#151,.T.);
#533=EDGE_CURVE('',#428,#425,#152,.T.);
#534=EDGE_CURVE('',#433,#432,#153,.T.);
#535=EDGE_CURVE('',#433,#434,#154,.T.);
#536=EDGE_CURVE('',#435,#434,#155,.T.);
#537=EDGE_CURVE('',#436,#435,#156,.T.);
#538=EDGE_CURVE('',#437,#436,#157,.T.);
#539=EDGE_CURVE('',#438,#437,#158,.T.);
#540=EDGE_CURVE('',#431,#438,#159,.T.);
#541=EDGE_CURVE('',#439,#423,#160,.T.);
#542=EDGE_CURVE('',#439,#440,#161,.T.);
#543=EDGE_CURVE('',#440,#441,#162,.T.);
#544=EDGE_CURVE('',#441,#442,#163,.T.);
#545=EDGE_CURVE('',#442,#443,#164,.T.);
#546=EDGE_CURVE('',#443,#433,#165,.T.);
#547=EDGE_CURVE('',#444,#445,#166,.T.);
#548=EDGE_CURVE('',#445,#446,#167,.T.);
#549=EDGE_CURVE('',#446,#447,#168,.T.);
#550=EDGE_CURVE('',#447,#448,#169,.T.);
#551=EDGE_CURVE('',#448,#449,#170,.T.);
#552=EDGE_CURVE('',#449,#450,#171,.T.);
#553=EDGE_CURVE('',#450,#451,#172,.T.);
#554=EDGE_CURVE('',#451,#452,#173,.T.);
#555=EDGE_CURVE('',#452,#453,#174,.T.);
#556=EDGE_CURVE('',#453,#454,#175,.T.);
#557=EDGE_CURVE('',#454,#455,#176,.T.);
#558=EDGE_CURVE('',#455,#456,#177,.T.);
#559=EDGE_CURVE('',#456,#457,#21,.T.);
#560=EDGE_CURVE('',#457,#458,#178,.T.);
#561=EDGE_CURVE('',#458,#459,#22,.T.);
#562=EDGE_CURVE('',#459,#444,#179,.T.);
#563=EDGE_CURVE('',#460,#438,#180,.T.);
#564=EDGE_CURVE('',#460,#461,#181,.T.);
#565=EDGE_CURVE('',#461,#435,#182,.T.);
#566=EDGE_CURVE('',#462,#434,#183,.T.);
#567=EDGE_CURVE('',#462,#463,#184,.T.);
#568=EDGE_CURVE('',#463,#464,#185,.T.);
#569=EDGE_CURVE('',#464,#465,#186,.T.);
#570=EDGE_CURVE('',#465,#466,#187,.T.);
#571=EDGE_CURVE('',#466,#467,#188,.T.);
#572=EDGE_CURVE('',#467,#468,#189,.T.);
#573=EDGE_CURVE('',#468,#469,#190,.T.);
#574=EDGE_CURVE('',#469,#470,#191,.T.);
#575=EDGE_CURVE('',#470,#471,#192,.T.);
#576=EDGE_CURVE('',#471,#472,#193,.T.);
#577=EDGE_CURVE('',#472,#473,#194,.T.);
#578=EDGE_CURVE('',#473,#474,#195,.T.);
#579=EDGE_CURVE('',#474,#475,#196,.T.);
#580=EDGE_CURVE('',#475,#476,#197,.T.);
#581=EDGE_CURVE('',#476,#477,#198,.T.);
#582=EDGE_CURVE('',#477,#478,#199,.T.);
#583=EDGE_CURVE('',#478,#422,#200,.T.);
#584=EDGE_CURVE('',#479,#480,#23,.T.);
#585=EDGE_CURVE('',#480,#481,#201,.T.);
#586=EDGE_CURVE('',#481,#482,#24,.T.);
#587=EDGE_CURVE('',#482,#483,#202,.T.);
#588=EDGE_CURVE('',#483,#484,#203,.T.);
#589=EDGE_CURVE('',#485,#484,#204,.T.);
#590=EDGE_CURVE('',#486,#485,#205,.T.);
#591=EDGE_CURVE('',#479,#486,#206,.T.);
#592=EDGE_CURVE('',#487,#478,#207,.T.);
#593=EDGE_CURVE('',#488,#487,#208,.T.);
#594=EDGE_CURVE('',#475,#488,#209,.T.);
#595=EDGE_CURVE('',#439,#474,#210,.T.);
#596=EDGE_CURVE('',#441,#472,#211,.T.);
#597=EDGE_CURVE('',#471,#489,#212,.T.);
#598=EDGE_CURVE('',#489,#490,#213,.T.);
#599=EDGE_CURVE('',#490,#468,#214,.T.);
#600=EDGE_CURVE('',#467,#491,#215,.T.);
#601=EDGE_CURVE('',#491,#492,#216,.T.);
#602=EDGE_CURVE('',#492,#464,#217,.T.);
#603=EDGE_CURVE('',#463,#442,#218,.T.);
#604=EDGE_CURVE('',#440,#473,#219,.T.);
#605=EDGE_CURVE('',#462,#443,#220,.T.);
#606=EDGE_CURVE('',#492,#493,#221,.T.);
#607=EDGE_CURVE('',#493,#465,#222,.T.);
#608=EDGE_CURVE('',#490,#494,#223,.T.);
#609=EDGE_CURVE('',#494,#469,#224,.T.);
#610=EDGE_CURVE('',#495,#491,#225,.T.);
#611=EDGE_CURVE('',#495,#493,#226,.T.);
#612=EDGE_CURVE('',#496,#494,#227,.T.);
#613=EDGE_CURVE('',#470,#496,#228,.T.);
#614=EDGE_CURVE('',#466,#495,#229,.T.);
#615=EDGE_CURVE('',#496,#489,#230,.T.);
#616=EDGE_CURVE('',#497,#437,#231,.T.);
#617=EDGE_CURVE('',#460,#497,#232,.T.);
#618=EDGE_CURVE('',#498,#436,#233,.T.);
#619=EDGE_CURVE('',#497,#498,#234,.T.);
#620=EDGE_CURVE('',#461,#498,#235,.T.);
#621=EDGE_CURVE('',#499,#500,#236,.T.);
#622=EDGE_CURVE('',#500,#501,#237,.T.);
#623=EDGE_CURVE('',#501,#502,#238,.T.);
#624=EDGE_CURVE('',#502,#479,#18,.F.);
#625=EDGE_CURVE('',#486,#499,#239,.T.);
#626=EDGE_CURVE('',#485,#503,#240,.T.);
#627=EDGE_CURVE('',#503,#504,#241,.T.);
#628=EDGE_CURVE('',#504,#505,#242,.T.);
#629=EDGE_CURVE('',#505,#506,#243,.T.);
#630=EDGE_CURVE('',#506,#507,#244,.T.);
#631=EDGE_CURVE('',#507,#499,#245,.T.);
#632=EDGE_CURVE('',#484,#508,#246,.F.);
#633=EDGE_CURVE('',#508,#509,#247,.T.);
#634=EDGE_CURVE('',#509,#503,#248,.T.);
#635=EDGE_CURVE('',#504,#451,#249,.T.);
#636=EDGE_CURVE('',#505,#450,#250,.T.);
#637=EDGE_CURVE('',#506,#447,#251,.T.);
#638=EDGE_CURVE('',#507,#446,#252,.T.);
#639=EDGE_CURVE('',#508,#454,#253,.T.);
#640=EDGE_CURVE('',#509,#453,#254,.T.);
#641=EDGE_CURVE('',#510,#511,#255,.T.);
#642=EDGE_CURVE('',#506,#510,#256,.T.);
#643=EDGE_CURVE('',#511,#505,#257,.T.);
#644=EDGE_CURVE('',#512,#509,#258,.T.);
#645=EDGE_CURVE('',#504,#512,#259,.T.);
#646=EDGE_CURVE('',#513,#507,#260,.T.);
#647=EDGE_CURVE('',#500,#513,#261,.T.);
#648=EDGE_CURVE('',#502,#514,#25,.T.);
#649=EDGE_CURVE('',#480,#514,#262,.T.);
#650=EDGE_CURVE('',#515,#501,#26,.T.);
#651=EDGE_CURVE('',#514,#515,#263,.T.);
#652=EDGE_CURVE('',#510,#448,#264,.T.);
#653=EDGE_CURVE('',#512,#452,#265,.T.);
#654=EDGE_CURVE('',#513,#445,#266,.T.);
#655=EDGE_CURVE('',#500,#444,#267,.T.);
#656=EDGE_CURVE('',#501,#459,#268,.T.);
#657=EDGE_CURVE('',#515,#458,#269,.T.);
#658=EDGE_CURVE('',#511,#449,#270,.T.);
#659=EDGE_CURVE('',#483,#455,#271,.T.);
#660=EDGE_CURVE('',#482,#456,#272,.T.);
#661=EDGE_CURVE('',#481,#457,#273,.T.);
#662=EDGE_CURVE('',#516,#488,#274,.T.);
#663=EDGE_CURVE('',#476,#516,#275,.T.);
#664=EDGE_CURVE('',#517,#487,#276,.T.);
#665=EDGE_CURVE('',#516,#517,#277,.T.);
#666=EDGE_CURVE('',#477,#517,#278,.T.);
#667=ORIENTED_EDGE('',*,*,#518,.T.);
#668=ORIENTED_EDGE('',*,*,#519,.F.);
#669=ORIENTED_EDGE('',*,*,#520,.F.);
#670=ORIENTED_EDGE('',*,*,#521,.F.);
#671=ORIENTED_EDGE('',*,*,#522,.T.);
#672=ORIENTED_EDGE('',*,*,#521,.T.);
#673=ORIENTED_EDGE('',*,*,#523,.F.);
#674=ORIENTED_EDGE('',*,*,#524,.F.);
#675=ORIENTED_EDGE('',*,*,#525,.T.);
#676=ORIENTED_EDGE('',*,*,#526,.T.);
#677=ORIENTED_EDGE('',*,*,#527,.F.);
#678=ORIENTED_EDGE('',*,*,#528,.F.);
#679=ORIENTED_EDGE('',*,*,#529,.T.);
#680=ORIENTED_EDGE('',*,*,#528,.T.);
#681=ORIENTED_EDGE('',*,*,#530,.F.);
#682=ORIENTED_EDGE('',*,*,#531,.F.);
#683=ORIENTED_EDGE('',*,*,#532,.F.);
#684=ORIENTED_EDGE('',*,*,#526,.F.);
#685=ORIENTED_EDGE('',*,*,#533,.T.);
#686=ORIENTED_EDGE('',*,*,#524,.T.);
#687=ORIENTED_EDGE('',*,*,#531,.T.);
#688=ORIENTED_EDGE('',*,*,#534,.F.);
#689=ORIENTED_EDGE('',*,*,#535,.T.);
#690=ORIENTED_EDGE('',*,*,#536,.F.);
#691=ORIENTED_EDGE('',*,*,#537,.F.);
#692=ORIENTED_EDGE('',*,*,#538,.F.);
#693=ORIENTED_EDGE('',*,*,#539,.F.);
#694=ORIENTED_EDGE('',*,*,#540,.F.);
#695=ORIENTED_EDGE('',*,*,#532,.T.);
#696=ORIENTED_EDGE('',*,*,#523,.T.);
#697=ORIENTED_EDGE('',*,*,#520,.T.);
#698=ORIENTED_EDGE('',*,*,#541,.F.);
#699=ORIENTED_EDGE('',*,*,#542,.T.);
#700=ORIENTED_EDGE('',*,*,#543,.T.);
#701=ORIENTED_EDGE('',*,*,#544,.T.);
#702=ORIENTED_EDGE('',*,*,#545,.T.);
#703=ORIENTED_EDGE('',*,*,#546,.T.);
#704=ORIENTED_EDGE('',*,*,#534,.T.);
#705=ORIENTED_EDGE('',*,*,#530,.T.);
#706=ORIENTED_EDGE('',*,*,#527,.T.);
#707=ORIENTED_EDGE('',*,*,#547,.T.);
#708=ORIENTED_EDGE('',*,*,#548,.T.);
#709=ORIENTED_EDGE('',*,*,#549,.T.);
#710=ORIENTED_EDGE('',*,*,#550,.T.);
#711=ORIENTED_EDGE('',*,*,#551,.T.);
#712=ORIENTED_EDGE('',*,*,#552,.T.);
#713=ORIENTED_EDGE('',*,*,#553,.T.);
#714=ORIENTED_EDGE('',*,*,#554,.T.);
#715=ORIENTED_EDGE('',*,*,#555,.T.);
#716=ORIENTED_EDGE('',*,*,#556,.T.);
#717=ORIENTED_EDGE('',*,*,#557,.T.);
#718=ORIENTED_EDGE('',*,*,#558,.T.);
#719=ORIENTED_EDGE('',*,*,#559,.T.);
#720=ORIENTED_EDGE('',*,*,#560,.T.);
#721=ORIENTED_EDGE('',*,*,#561,.T.);
#722=ORIENTED_EDGE('',*,*,#562,.T.);
#723=ORIENTED_EDGE('',*,*,#533,.F.);
#724=ORIENTED_EDGE('',*,*,#525,.F.);
#725=ORIENTED_EDGE('',*,*,#529,.F.);
#726=ORIENTED_EDGE('',*,*,#540,.T.);
#727=ORIENTED_EDGE('',*,*,#563,.F.);
#728=ORIENTED_EDGE('',*,*,#564,.T.);
#729=ORIENTED_EDGE('',*,*,#565,.T.);
#730=ORIENTED_EDGE('',*,*,#536,.T.);
#731=ORIENTED_EDGE('',*,*,#566,.F.);
#732=ORIENTED_EDGE('',*,*,#567,.T.);
#733=ORIENTED_EDGE('',*,*,#568,.T.);
#734=ORIENTED_EDGE('',*,*,#569,.T.);
#735=ORIENTED_EDGE('',*,*,#570,.T.);
#736=ORIENTED_EDGE('',*,*,#571,.T.);
#737=ORIENTED_EDGE('',*,*,#572,.T.);
#738=ORIENTED_EDGE('',*,*,#573,.T.);
#739=ORIENTED_EDGE('',*,*,#574,.T.);
#740=ORIENTED_EDGE('',*,*,#575,.T.);
#741=ORIENTED_EDGE('',*,*,#576,.T.);
#742=ORIENTED_EDGE('',*,*,#577,.T.);
#743=ORIENTED_EDGE('',*,*,#578,.T.);
#744=ORIENTED_EDGE('',*,*,#579,.T.);
#745=ORIENTED_EDGE('',*,*,#580,.T.);
#746=ORIENTED_EDGE('',*,*,#581,.T.);
#747=ORIENTED_EDGE('',*,*,#582,.T.);
#748=ORIENTED_EDGE('',*,*,#583,.T.);
#749=ORIENTED_EDGE('',*,*,#518,.F.);
#750=ORIENTED_EDGE('',*,*,#522,.F.);
#751=ORIENTED_EDGE('',*,*,#584,.T.);
#752=ORIENTED_EDGE('',*,*,#585,.T.);
#753=ORIENTED_EDGE('',*,*,#586,.T.);
#754=ORIENTED_EDGE('',*,*,#587,.T.);
#755=ORIENTED_EDGE('',*,*,#588,.T.);
#756=ORIENTED_EDGE('',*,*,#589,.F.);
#757=ORIENTED_EDGE('',*,*,#590,.F.);
#758=ORIENTED_EDGE('',*,*,#591,.F.);
#759=ORIENTED_EDGE('',*,*,#519,.T.);
#760=ORIENTED_EDGE('',*,*,#583,.F.);
#761=ORIENTED_EDGE('',*,*,#592,.F.);
#762=ORIENTED_EDGE('',*,*,#593,.F.);
#763=ORIENTED_EDGE('',*,*,#594,.F.);
#764=ORIENTED_EDGE('',*,*,#579,.F.);
#765=ORIENTED_EDGE('',*,*,#595,.F.);
#766=ORIENTED_EDGE('',*,*,#541,.T.);
#767=ORIENTED_EDGE('',*,*,#544,.F.);
#768=ORIENTED_EDGE('',*,*,#596,.T.);
#769=ORIENTED_EDGE('',*,*,#576,.F.);
#770=ORIENTED_EDGE('',*,*,#597,.T.);
#771=ORIENTED_EDGE('',*,*,#598,.T.);
#772=ORIENTED_EDGE('',*,*,#599,.T.);
#773=ORIENTED_EDGE('',*,*,#572,.F.);
#774=ORIENTED_EDGE('',*,*,#600,.T.);
#775=ORIENTED_EDGE('',*,*,#601,.T.);
#776=ORIENTED_EDGE('',*,*,#602,.T.);
#777=ORIENTED_EDGE('',*,*,#568,.F.);
#778=ORIENTED_EDGE('',*,*,#603,.T.);
#779=ORIENTED_EDGE('',*,*,#542,.F.);
#780=ORIENTED_EDGE('',*,*,#595,.T.);
#781=ORIENTED_EDGE('',*,*,#578,.F.);
#782=ORIENTED_EDGE('',*,*,#604,.F.);
#783=ORIENTED_EDGE('',*,*,#604,.T.);
#784=ORIENTED_EDGE('',*,*,#577,.F.);
#785=ORIENTED_EDGE('',*,*,#596,.F.);
#786=ORIENTED_EDGE('',*,*,#543,.F.);
#787=ORIENTED_EDGE('',*,*,#605,.T.);
#788=ORIENTED_EDGE('',*,*,#545,.F.);
#789=ORIENTED_EDGE('',*,*,#603,.F.);
#790=ORIENTED_EDGE('',*,*,#567,.F.);
#791=ORIENTED_EDGE('',*,*,#605,.F.);
#792=ORIENTED_EDGE('',*,*,#566,.T.);
#793=ORIENTED_EDGE('',*,*,#535,.F.);
#794=ORIENTED_EDGE('',*,*,#546,.F.);
#795=ORIENTED_EDGE('',*,*,#569,.F.);
#796=ORIENTED_EDGE('',*,*,#602,.F.);
#797=ORIENTED_EDGE('',*,*,#606,.T.);
#798=ORIENTED_EDGE('',*,*,#607,.T.);
#799=ORIENTED_EDGE('',*,*,#573,.F.);
#800=ORIENTED_EDGE('',*,*,#599,.F.);
#801=ORIENTED_EDGE('',*,*,#608,.T.);
#802=ORIENTED_EDGE('',*,*,#609,.T.);
#803=ORIENTED_EDGE('',*,*,#610,.F.);
#804=ORIENTED_EDGE('',*,*,#611,.T.);
#805=ORIENTED_EDGE('',*,*,#606,.F.);
#806=ORIENTED_EDGE('',*,*,#601,.F.);
#807=ORIENTED_EDGE('',*,*,#574,.F.);
#808=ORIENTED_EDGE('',*,*,#609,.F.);
#809=ORIENTED_EDGE('',*,*,#612,.F.);
#810=ORIENTED_EDGE('',*,*,#613,.F.);
#811=ORIENTED_EDGE('',*,*,#570,.F.);
#812=ORIENTED_EDGE('',*,*,#607,.F.);
#813=ORIENTED_EDGE('',*,*,#611,.F.);
#814=ORIENTED_EDGE('',*,*,#614,.F.);
#815=ORIENTED_EDGE('',*,*,#571,.F.);
#816=ORIENTED_EDGE('',*,*,#614,.T.);
#817=ORIENTED_EDGE('',*,*,#610,.T.);
#818=ORIENTED_EDGE('',*,*,#600,.F.);
#819=ORIENTED_EDGE('',*,*,#575,.F.);
#820=ORIENTED_EDGE('',*,*,#613,.T.);
#821=ORIENTED_EDGE('',*,*,#615,.T.);
#822=ORIENTED_EDGE('',*,*,#597,.F.);
#823=ORIENTED_EDGE('',*,*,#615,.F.);
#824=ORIENTED_EDGE('',*,*,#612,.T.);
#825=ORIENTED_EDGE('',*,*,#608,.F.);
#826=ORIENTED_EDGE('',*,*,#598,.F.);
#827=ORIENTED_EDGE('',*,*,#539,.T.);
#828=ORIENTED_EDGE('',*,*,#616,.F.);
#829=ORIENTED_EDGE('',*,*,#617,.F.);
#830=ORIENTED_EDGE('',*,*,#563,.T.);
#831=ORIENTED_EDGE('',*,*,#538,.T.);
#832=ORIENTED_EDGE('',*,*,#618,.F.);
#833=ORIENTED_EDGE('',*,*,#619,.F.);
#834=ORIENTED_EDGE('',*,*,#616,.T.);
#835=ORIENTED_EDGE('',*,*,#537,.T.);
#836=ORIENTED_EDGE('',*,*,#565,.F.);
#837=ORIENTED_EDGE('',*,*,#620,.T.);
#838=ORIENTED_EDGE('',*,*,#618,.T.);
#839=ORIENTED_EDGE('',*,*,#620,.F.);
#840=ORIENTED_EDGE('',*,*,#564,.F.);
#841=ORIENTED_EDGE('',*,*,#617,.T.);
#842=ORIENTED_EDGE('',*,*,#619,.T.);
#843=ORIENTED_EDGE('',*,*,#621,.T.);
#844=ORIENTED_EDGE('',*,*,#622,.T.);
#845=ORIENTED_EDGE('',*,*,#623,.T.);
#846=ORIENTED_EDGE('',*,*,#624,.T.);
#847=ORIENTED_EDGE('',*,*,#591,.T.);
#848=ORIENTED_EDGE('',*,*,#625,.T.);
#849=ORIENTED_EDGE('',*,*,#590,.T.);
#850=ORIENTED_EDGE('',*,*,#626,.T.);
#851=ORIENTED_EDGE('',*,*,#627,.T.);
#852=ORIENTED_EDGE('',*,*,#628,.T.);
#853=ORIENTED_EDGE('',*,*,#629,.T.);
#854=ORIENTED_EDGE('',*,*,#630,.T.);
#855=ORIENTED_EDGE('',*,*,#631,.T.);
#856=ORIENTED_EDGE('',*,*,#625,.F.);
#857=ORIENTED_EDGE('',*,*,#589,.T.);
#858=ORIENTED_EDGE('',*,*,#632,.T.);
#859=ORIENTED_EDGE('',*,*,#633,.T.);
#860=ORIENTED_EDGE('',*,*,#634,.T.);
#861=ORIENTED_EDGE('',*,*,#626,.F.);
#862=ORIENTED_EDGE('',*,*,#628,.F.);
#863=ORIENTED_EDGE('',*,*,#635,.T.);
#864=ORIENTED_EDGE('',*,*,#553,.F.);
#865=ORIENTED_EDGE('',*,*,#636,.F.);
#866=ORIENTED_EDGE('',*,*,#630,.F.);
#867=ORIENTED_EDGE('',*,*,#637,.T.);
#868=ORIENTED_EDGE('',*,*,#549,.F.);
#869=ORIENTED_EDGE('',*,*,#638,.F.);
#870=ORIENTED_EDGE('',*,*,#633,.F.);
#871=ORIENTED_EDGE('',*,*,#639,.T.);
#872=ORIENTED_EDGE('',*,*,#556,.F.);
#873=ORIENTED_EDGE('',*,*,#640,.F.);
#874=ORIENTED_EDGE('',*,*,#641,.F.);
#875=ORIENTED_EDGE('',*,*,#642,.F.);
#876=ORIENTED_EDGE('',*,*,#629,.F.);
#877=ORIENTED_EDGE('',*,*,#643,.F.);
#878=ORIENTED_EDGE('',*,*,#644,.F.);
#879=ORIENTED_EDGE('',*,*,#645,.F.);
#880=ORIENTED_EDGE('',*,*,#627,.F.);
#881=ORIENTED_EDGE('',*,*,#634,.F.);
#882=ORIENTED_EDGE('',*,*,#631,.F.);
#883=ORIENTED_EDGE('',*,*,#646,.F.);
#884=ORIENTED_EDGE('',*,*,#647,.F.);
#885=ORIENTED_EDGE('',*,*,#621,.F.);
#886=ORIENTED_EDGE('',*,*,#584,.F.);
#887=ORIENTED_EDGE('',*,*,#624,.F.);
#888=ORIENTED_EDGE('',*,*,#648,.T.);
#889=ORIENTED_EDGE('',*,*,#649,.F.);
#890=ORIENTED_EDGE('',*,*,#623,.F.);
#891=ORIENTED_EDGE('',*,*,#650,.F.);
#892=ORIENTED_EDGE('',*,*,#651,.F.);
#893=ORIENTED_EDGE('',*,*,#648,.F.);
#894=ORIENTED_EDGE('',*,*,#642,.T.);
#895=ORIENTED_EDGE('',*,*,#652,.T.);
#896=ORIENTED_EDGE('',*,*,#550,.F.);
#897=ORIENTED_EDGE('',*,*,#637,.F.);
#898=ORIENTED_EDGE('',*,*,#645,.T.);
#899=ORIENTED_EDGE('',*,*,#653,.T.);
#900=ORIENTED_EDGE('',*,*,#554,.F.);
#901=ORIENTED_EDGE('',*,*,#635,.F.);
#902=ORIENTED_EDGE('',*,*,#647,.T.);
#903=ORIENTED_EDGE('',*,*,#654,.T.);
#904=ORIENTED_EDGE('',*,*,#547,.F.);
#905=ORIENTED_EDGE('',*,*,#655,.F.);
#906=ORIENTED_EDGE('',*,*,#646,.T.);
#907=ORIENTED_EDGE('',*,*,#638,.T.);
#908=ORIENTED_EDGE('',*,*,#548,.F.);
#909=ORIENTED_EDGE('',*,*,#654,.F.);
#910=ORIENTED_EDGE('',*,*,#650,.T.);
#911=ORIENTED_EDGE('',*,*,#656,.T.);
#912=ORIENTED_EDGE('',*,*,#561,.F.);
#913=ORIENTED_EDGE('',*,*,#657,.F.);
#914=ORIENTED_EDGE('',*,*,#641,.T.);
#915=ORIENTED_EDGE('',*,*,#658,.T.);
#916=ORIENTED_EDGE('',*,*,#551,.F.);
#917=ORIENTED_EDGE('',*,*,#652,.F.);
#918=ORIENTED_EDGE('',*,*,#643,.T.);
#919=ORIENTED_EDGE('',*,*,#636,.T.);
#920=ORIENTED_EDGE('',*,*,#552,.F.);
#921=ORIENTED_EDGE('',*,*,#658,.F.);
#922=ORIENTED_EDGE('',*,*,#644,.T.);
#923=ORIENTED_EDGE('',*,*,#640,.T.);
#924=ORIENTED_EDGE('',*,*,#555,.F.);
#925=ORIENTED_EDGE('',*,*,#653,.F.);
#926=ORIENTED_EDGE('',*,*,#588,.F.);
#927=ORIENTED_EDGE('',*,*,#659,.T.);
#928=ORIENTED_EDGE('',*,*,#557,.F.);
#929=ORIENTED_EDGE('',*,*,#639,.F.);
#930=ORIENTED_EDGE('',*,*,#632,.F.);
#931=ORIENTED_EDGE('',*,*,#587,.F.);
#932=ORIENTED_EDGE('',*,*,#660,.T.);
#933=ORIENTED_EDGE('',*,*,#558,.F.);
#934=ORIENTED_EDGE('',*,*,#659,.F.);
#935=ORIENTED_EDGE('',*,*,#586,.F.);
#936=ORIENTED_EDGE('',*,*,#661,.T.);
#937=ORIENTED_EDGE('',*,*,#559,.F.);
#938=ORIENTED_EDGE('',*,*,#660,.F.);
#939=ORIENTED_EDGE('',*,*,#651,.T.);
#940=ORIENTED_EDGE('',*,*,#657,.T.);
#941=ORIENTED_EDGE('',*,*,#560,.F.);
#942=ORIENTED_EDGE('',*,*,#661,.F.);
#943=ORIENTED_EDGE('',*,*,#585,.F.);
#944=ORIENTED_EDGE('',*,*,#649,.T.);
#945=ORIENTED_EDGE('',*,*,#622,.F.);
#946=ORIENTED_EDGE('',*,*,#655,.T.);
#947=ORIENTED_EDGE('',*,*,#562,.F.);
#948=ORIENTED_EDGE('',*,*,#656,.F.);
#949=ORIENTED_EDGE('',*,*,#594,.T.);
#950=ORIENTED_EDGE('',*,*,#662,.F.);
#951=ORIENTED_EDGE('',*,*,#663,.F.);
#952=ORIENTED_EDGE('',*,*,#580,.F.);
#953=ORIENTED_EDGE('',*,*,#593,.T.);
#954=ORIENTED_EDGE('',*,*,#664,.F.);
#955=ORIENTED_EDGE('',*,*,#665,.F.);
#956=ORIENTED_EDGE('',*,*,#662,.T.);
#957=ORIENTED_EDGE('',*,*,#592,.T.);
#958=ORIENTED_EDGE('',*,*,#582,.F.);
#959=ORIENTED_EDGE('',*,*,#666,.T.);
#960=ORIENTED_EDGE('',*,*,#664,.T.);
#961=ORIENTED_EDGE('',*,*,#666,.F.);
#962=ORIENTED_EDGE('',*,*,#581,.F.);
#963=ORIENTED_EDGE('',*,*,#663,.T.);
#964=ORIENTED_EDGE('',*,*,#665,.T.);
#965=PLANE('',#1072);
#966=PLANE('',#1073);
#967=PLANE('',#1074);
#968=PLANE('',#1075);
#969=PLANE('',#1076);
#970=PLANE('',#1077);
#971=PLANE('',#1078);
#972=PLANE('',#1081);
#973=PLANE('',#1084);
#974=PLANE('',#1085);
#975=PLANE('',#1086);
#976=PLANE('',#1087);
#977=PLANE('',#1088);
#978=PLANE('',#1089);
#979=PLANE('',#1090);
#980=PLANE('',#1091);
#981=PLANE('',#1092);
#982=PLANE('',#1093);
#983=PLANE('',#1094);
#984=PLANE('',#1095);
#985=PLANE('',#1096);
#986=PLANE('',#1097);
#987=PLANE('',#1098);
#988=PLANE('',#1099);
#989=PLANE('',#1100);
#990=PLANE('',#1101);
#991=PLANE('',#1102);
#992=PLANE('',#1104);
#993=PLANE('',#1105);
#994=PLANE('',#1106);
#995=PLANE('',#1107);
#996=PLANE('',#1108);
#997=PLANE('',#1109);
#998=PLANE('',#1110);
#999=PLANE('',#1111);
#1000=PLANE('',#1114);
#1001=PLANE('',#1116);
#1002=PLANE('',#1117);
#1003=PLANE('',#1118);
#1004=PLANE('',#1119);
#1005=PLANE('',#1121);
#1006=PLANE('',#1122);
#1007=PLANE('',#1123);
#1008=PLANE('',#1124);
#1009=PLANE('',#1125);
#1010=PLANE('',#1127);
#1011=PLANE('',#1128);
#1012=PLANE('',#1129);
#1013=PLANE('',#1130);
#1014=PLANE('',#1131);
#1015=PLANE('',#1132);
#1016=ADVANCED_FACE('',(#27),#965,.T.);
#1017=ADVANCED_FACE('',(#28),#966,.T.);
#1018=ADVANCED_FACE('',(#29),#967,.T.);
#1019=ADVANCED_FACE('',(#30),#968,.T.);
#1020=ADVANCED_FACE('',(#31),#969,.F.);
#1021=ADVANCED_FACE('',(#32),#970,.F.);
#1022=ADVANCED_FACE('',(#33,#19),#971,.F.);
#1023=ADVANCED_FACE('',(#34,#20),#972,.T.);
#1024=ADVANCED_FACE('',(#35),#973,.F.);
#1025=ADVANCED_FACE('',(#36),#974,.T.);
#1026=ADVANCED_FACE('',(#37),#975,.F.);
#1027=ADVANCED_FACE('',(#38),#976,.F.);
#1028=ADVANCED_FACE('',(#39),#977,.F.);
#1029=ADVANCED_FACE('',(#40),#978,.F.);
#1030=ADVANCED_FACE('',(#41),#979,.F.);
#1031=ADVANCED_FACE('',(#42),#980,.F.);
#1032=ADVANCED_FACE('',(#43),#981,.F.);
#1033=ADVANCED_FACE('',(#44),#982,.F.);
#1034=ADVANCED_FACE('',(#45),#983,.F.);
#1035=ADVANCED_FACE('',(#46),#984,.F.);
#1036=ADVANCED_FACE('',(#47),#985,.F.);
#1037=ADVANCED_FACE('',(#48),#986,.F.);
#1038=ADVANCED_FACE('',(#49),#987,.F.);
#1039=ADVANCED_FACE('',(#50),#988,.F.);
#1040=ADVANCED_FACE('',(#51),#989,.F.);
#1041=ADVANCED_FACE('',(#52),#990,.F.);
#1042=ADVANCED_FACE('',(#53),#991,.T.);
#1043=ADVANCED_FACE('',(#54),#992,.T.);
#1044=ADVANCED_FACE('',(#55),#993,.T.);
#1045=ADVANCED_FACE('',(#56),#994,.T.);
#1046=ADVANCED_FACE('',(#57),#995,.T.);
#1047=ADVANCED_FACE('',(#58),#996,.T.);
#1048=ADVANCED_FACE('',(#59),#997,.F.);
#1049=ADVANCED_FACE('',(#60),#998,.F.);
#1050=ADVANCED_FACE('',(#61),#999,.F.);
#1051=ADVANCED_FACE('',(#62),#15,.T.);
#1052=ADVANCED_FACE('',(#63),#1000,.F.);
#1053=ADVANCED_FACE('',(#64),#1001,.T.);
#1054=ADVANCED_FACE('',(#65),#1002,.T.);
#1055=ADVANCED_FACE('',(#66),#1003,.T.);
#1056=ADVANCED_FACE('',(#67),#1004,.T.);
#1057=ADVANCED_FACE('',(#68),#16,.T.);
#1058=ADVANCED_FACE('',(#69),#1005,.T.);
#1059=ADVANCED_FACE('',(#70),#1006,.T.);
#1060=ADVANCED_FACE('',(#71),#1007,.T.);
#1061=ADVANCED_FACE('',(#72),#1008,.T.);
#1062=ADVANCED_FACE('',(#73),#1009,.T.);
#1063=ADVANCED_FACE('',(#74),#17,.F.);
#1064=ADVANCED_FACE('',(#75),#1010,.T.);
#1065=ADVANCED_FACE('',(#76),#1011,.T.);
#1066=ADVANCED_FACE('',(#77),#1012,.F.);
#1067=ADVANCED_FACE('',(#78),#1013,.F.);
#1068=ADVANCED_FACE('',(#79),#1014,.F.);
#1069=ADVANCED_FACE('',(#80),#1015,.F.);
#1070=CLOSED_SHELL('',(#1016,#1017,#1018,#1019,#1020,#1021,#1022,#1023,
#1024,#1025,#1026,#1027,#1028,#1029,#1030,#1031,#1032,#1033,#1034,#1035,
#1036,#1037,#1038,#1039,#1040,#1041,#1042,#1043,#1044,#1045,#1046,#1047,
#1048,#1049,#1050,#1051,#1052,#1053,#1054,#1055,#1056,#1057,#1058,#1059,
#1060,#1061,#1062,#1063,#1064,#1065,#1066,#1067,#1068,#1069));
#1071=AXIS2_PLACEMENT_3D('',#1399,#1133,#1134);
#1072=AXIS2_PLACEMENT_3D('',#1400,#1135,#1136);
#1073=AXIS2_PLACEMENT_3D('',#1409,#1141,#1142);
#1074=AXIS2_PLACEMENT_3D('',#1415,#1146,#1147);
#1075=AXIS2_PLACEMENT_3D('',#1424,#1152,#1153);
#1076=AXIS2_PLACEMENT_3D('',#1430,#1157,#1158);
#1077=AXIS2_PLACEMENT_3D('',#1433,#1161,#1162);
#1078=AXIS2_PLACEMENT_3D('',#1447,#1170,#1171);
#1079=AXIS2_PLACEMENT_3D('',#1485,#1190,#1191);
#1080=AXIS2_PLACEMENT_3D('',#1489,#1193,#1194);
#1081=AXIS2_PLACEMENT_3D('',#1491,#1196,#1197);
#1082=AXIS2_PLACEMENT_3D('',#1534,#1219,#1220);
#1083=AXIS2_PLACEMENT_3D('',#1538,#1222,#1223);
#1084=AXIS2_PLACEMENT_3D('',#1548,#1229,#1230);
#1085=AXIS2_PLACEMENT_3D('',#1555,#1235,#1236);
#1086=AXIS2_PLACEMENT_3D('',#1568,#1245,#1246);
#1087=AXIS2_PLACEMENT_3D('',#1570,#1248,#1249);
#1088=AXIS2_PLACEMENT_3D('',#1571,#1250,#1251);
#1089=AXIS2_PLACEMENT_3D('',#1573,#1253,#1254);
#1090=AXIS2_PLACEMENT_3D('',#1574,#1255,#1256);
#1091=AXIS2_PLACEMENT_3D('',#1578,#1259,#1260);
#1092=AXIS2_PLACEMENT_3D('',#1582,#1263,#1264);
#1093=AXIS2_PLACEMENT_3D('',#1586,#1267,#1268);
#1094=AXIS2_PLACEMENT_3D('',#1590,#1271,#1272);
#1095=AXIS2_PLACEMENT_3D('',#1592,#1274,#1275);
#1096=AXIS2_PLACEMENT_3D('',#1593,#1276,#1277);
#1097=AXIS2_PLACEMENT_3D('',#1595,#1279,#1280);
#1098=AXIS2_PLACEMENT_3D('',#1596,#1281,#1282);
#1099=AXIS2_PLACEMENT_3D('',#1600,#1285,#1286);
#1100=AXIS2_PLACEMENT_3D('',#1604,#1289,#1290);
#1101=AXIS2_PLACEMENT_3D('',#1606,#1292,#1293);
#1102=AXIS2_PLACEMENT_3D('',#1607,#1294,#1295);
#1103=AXIS2_PLACEMENT_3D('',#1615,#1299,#1300);
#1104=AXIS2_PLACEMENT_3D('',#1617,#1302,#1303);
#1105=AXIS2_PLACEMENT_3D('',#1629,#1310,#1311);
#1106=AXIS2_PLACEMENT_3D('',#1635,#1315,#1316);
#1107=AXIS2_PLACEMENT_3D('',#1638,#1319,#1320);
#1108=AXIS2_PLACEMENT_3D('',#1641,#1323,#1324);
#1109=AXIS2_PLACEMENT_3D('',#1644,#1327,#1328);
#1110=AXIS2_PLACEMENT_3D('',#1650,#1332,#1333);
#1111=AXIS2_PLACEMENT_3D('',#1654,#1336,#1337);
#1112=AXIS2_PLACEMENT_3D('',#1658,#1340,#1341);
#1113=AXIS2_PLACEMENT_3D('',#1660,#1342,#1343);
#1114=AXIS2_PLACEMENT_3D('',#1662,#1345,#1346);
#1115=AXIS2_PLACEMENT_3D('',#1664,#1347,#1348);
#1116=AXIS2_PLACEMENT_3D('',#1666,#1350,#1351);
#1117=AXIS2_PLACEMENT_3D('',#1668,#1353,#1354);
#1118=AXIS2_PLACEMENT_3D('',#1670,#1356,#1357);
#1119=AXIS2_PLACEMENT_3D('',#1673,#1360,#1361);
#1120=AXIS2_PLACEMENT_3D('',#1674,#1362,#1363);
#1121=AXIS2_PLACEMENT_3D('',#1677,#1366,#1367);
#1122=AXIS2_PLACEMENT_3D('',#1679,#1369,#1370);
#1123=AXIS2_PLACEMENT_3D('',#1680,#1371,#1372);
#1124=AXIS2_PLACEMENT_3D('',#1681,#1373,#1374);
#1125=AXIS2_PLACEMENT_3D('',#1683,#1376,#1377);
#1126=AXIS2_PLACEMENT_3D('',#1685,#1379,#1380);
#1127=AXIS2_PLACEMENT_3D('',#1687,#1382,#1383);
#1128=AXIS2_PLACEMENT_3D('',#1688,#1384,#1385);
#1129=AXIS2_PLACEMENT_3D('',#1689,#1386,#1387);
#1130=AXIS2_PLACEMENT_3D('',#1693,#1390,#1391);
#1131=AXIS2_PLACEMENT_3D('',#1697,#1394,#1395);
#1132=AXIS2_PLACEMENT_3D('',#1699,#1397,#1398);
#1133=DIRECTION('axis',(0.,0.,1.));
#1134=DIRECTION('refdir',(1.,0.,0.));
#1135=DIRECTION('center_axis',(0.,-1.,0.));
#1136=DIRECTION('ref_axis',(-1.,0.,0.));
#1137=DIRECTION('',(-1.,0.,0.));
#1138=DIRECTION('',(1.1842378929335E-14,0.,1.));
#1139=DIRECTION('',(-1.,0.,0.));
#1140=DIRECTION('',(0.,0.,-1.));
#1141=DIRECTION('center_axis',(1.,0.,0.));
#1142=DIRECTION('ref_axis',(0.,-1.,0.));
#1143=DIRECTION('',(0.,-1.,0.));
#1144=DIRECTION('',(0.,-1.,0.));
#1145=DIRECTION('',(0.,0.,-1.));
#1146=DIRECTION('center_axis',(-1.,0.,0.));
#1147=DIRECTION('ref_axis',(0.,1.,0.));
#1148=DIRECTION('',(0.,1.,0.));
#1149=DIRECTION('',(0.,0.,-1.));
#1150=DIRECTION('',(0.,1.,0.));
#1151=DIRECTION('',(0.,0.,-1.));
#1152=DIRECTION('center_axis',(0.,-1.,0.));
#1153=DIRECTION('ref_axis',(-1.,0.,0.));
#1154=DIRECTION('',(-1.,0.,0.));
#1155=DIRECTION('',(-1.,0.,0.));
#1156=DIRECTION('',(0.,0.,-1.));
#1157=DIRECTION('center_axis',(0.,-1.,0.));
#1158=DIRECTION('ref_axis',(-1.,0.,0.));
#1159=DIRECTION('',(1.,0.,0.));
#1160=DIRECTION('',(1.,0.,0.));
#1161=DIRECTION('center_axis',(1.,-6.97778054586092E-30,0.));
#1162=DIRECTION('ref_axis',(6.97778054586092E-30,1.,9.35759338480327E-22));
#1163=DIRECTION('',(0.,1.,0.));
#1164=DIRECTION('',(0.,0.,1.));
#1165=DIRECTION('',(-6.97778054586092E-30,-1.,0.));
#1166=DIRECTION('',(0.,0.,1.));
#1167=DIRECTION('',(-6.97778054586092E-30,-1.,0.));
#1168=DIRECTION('',(0.,0.,-1.));
#1169=DIRECTION('',(-6.97778054586092E-30,-1.,0.));
#1170=DIRECTION('center_axis',(0.,0.,1.));
#1171=DIRECTION('ref_axis',(1.,0.,0.));
#1172=DIRECTION('',(0.,1.,0.));
#1173=DIRECTION('',(1.,4.84766458550858E-21,0.));
#1174=DIRECTION('',(0.,-1.,0.));
#1175=DIRECTION('',(-1.,2.17092189355362E-16,0.));
#1176=DIRECTION('',(0.,1.,0.));
#1177=DIRECTION('',(1.,4.84766458550858E-21,0.));
#1178=DIRECTION('',(0.,1.,0.));
#1179=DIRECTION('',(1.,0.,0.));
#1180=DIRECTION('',(0.,1.,0.));
#1181=DIRECTION('',(-1.,0.,0.));
#1182=DIRECTION('',(0.,1.,0.));
#1183=DIRECTION('',(1.,0.,0.));
#1184=DIRECTION('',(0.,1.,0.));
#1185=DIRECTION('',(-1.,0.,0.));
#1186=DIRECTION('',(0.,1.,0.));
#1187=DIRECTION('',(-1.,0.,0.));
#1188=DIRECTION('',(0.,-1.,0.));
#1189=DIRECTION('',(1.,0.,0.));
#1190=DIRECTION('center_axis',(0.,0.,1.));
#1191=DIRECTION('ref_axis',(0.762977473065345,-0.646425073457722,0.));
#1192=DIRECTION('',(1.,0.,0.));
#1193=DIRECTION('center_axis',(0.,0.,-1.));
#1194=DIRECTION('ref_axis',(0.762977473065344,-0.646425073457722,0.));
#1195=DIRECTION('',(1.,0.,0.));
#1196=DIRECTION('center_axis',(0.,0.,1.));
#1197=DIRECTION('ref_axis',(1.,0.,0.));
#1198=DIRECTION('',(-1.,-5.07530525542929E-16,0.));
#1199=DIRECTION('',(0.,-1.,0.));
#1200=DIRECTION('',(-1.,1.18477513499958E-17,0.));
#1201=DIRECTION('',(1.,4.84766458550858E-21,0.));
#1202=DIRECTION('',(0.,-1.,0.));
#1203=DIRECTION('',(1.,-2.17092189355362E-16,-1.11580203479915E-16));
#1204=DIRECTION('',(0.,1.,0.));
#1205=DIRECTION('',(1.,0.,0.));
#1206=DIRECTION('',(0.,-1.,0.));
#1207=DIRECTION('',(1.,-2.17092189355362E-16,0.));
#1208=DIRECTION('',(0.,1.,0.));
#1209=DIRECTION('',(1.,0.,0.));
#1210=DIRECTION('',(0.,-1.,0.));
#1211=DIRECTION('',(1.,-2.17092189355362E-16,0.));
#1212=DIRECTION('',(0.,1.,0.));
#1213=DIRECTION('',(-1.,-4.84766458550858E-21,0.));
#1214=DIRECTION('',(-4.84766458550858E-21,1.,0.));
#1215=DIRECTION('',(-1.,0.,0.));
#1216=DIRECTION('',(0.,1.,0.));
#1217=DIRECTION('',(1.,-4.7391005399983E-17,0.));
#1218=DIRECTION('',(-4.84766458550858E-21,1.,0.));
#1219=DIRECTION('center_axis',(0.,0.,1.));
#1220=DIRECTION('ref_axis',(0.762977473065347,0.646425073457719,0.));
#1221=DIRECTION('',(-1.,0.,0.));
#1222=DIRECTION('center_axis',(0.,0.,-1.));
#1223=DIRECTION('ref_axis',(0.762977473065345,-0.646425073457722,0.));
#1224=DIRECTION('',(-1.,0.,0.));
#1225=DIRECTION('',(0.,1.,0.));
#1226=DIRECTION('',(-1.,0.,0.));
#1227=DIRECTION('',(0.,1.,0.));
#1228=DIRECTION('',(1.,0.,0.));
#1229=DIRECTION('center_axis',(-1.,-4.84766458550858E-21,1.1842378929335E-14));
#1230=DIRECTION('ref_axis',(4.84766458550857E-21,-1.,-9.35761598758353E-22));
#1231=DIRECTION('',(1.1842378929335E-14,-5.61222243788761E-31,1.));
#1232=DIRECTION('',(-4.84766458550858E-21,1.,0.));
#1233=DIRECTION('',(-1.1842378929335E-14,-1.4030556094719E-31,-1.));
#1234=DIRECTION('',(1.1842378929335E-14,0.,1.));
#1235=DIRECTION('center_axis',(-2.17092189355362E-16,-1.,0.));
#1236=DIRECTION('ref_axis',(-1.,2.17092189355362E-16,0.));
#1237=DIRECTION('',(0.,0.,1.));
#1238=DIRECTION('',(0.,0.,-1.));
#1239=DIRECTION('',(-1.,2.17092189355362E-16,0.));
#1240=DIRECTION('',(0.,0.,1.));
#1241=DIRECTION('',(0.,0.,-1.));
#1242=DIRECTION('',(-1.,2.17092189355362E-16,0.));
#1243=DIRECTION('',(0.,0.,1.));
#1244=DIRECTION('',(0.,0.,-1.));
#1245=DIRECTION('center_axis',(4.84766458550858E-21,-1.,-5.74078809439103E-35));
#1246=DIRECTION('ref_axis',(1.,4.84766458550858E-21,-1.13560962378793E-14));
#1247=DIRECTION('',(0.,-5.74078809439103E-35,1.));
#1248=DIRECTION('center_axis',(-1.,0.,0.));
#1249=DIRECTION('ref_axis',(0.,0.,1.));
#1250=DIRECTION('center_axis',(1.,0.,0.));
#1251=DIRECTION('ref_axis',(0.,0.,-1.));
#1252=DIRECTION('',(0.,0.,-1.));
#1253=DIRECTION('center_axis',(4.84766458550858E-21,-1.,0.));
#1254=DIRECTION('ref_axis',(1.,4.84766458550858E-21,-1.13560962378793E-14));
#1255=DIRECTION('center_axis',(-1.,0.,0.));
#1256=DIRECTION('ref_axis',(0.,1.,0.));
#1257=DIRECTION('',(0.,1.,0.));
#1258=DIRECTION('',(0.,0.,1.));
#1259=DIRECTION('center_axis',(-1.,-1.77825364791595E-16,0.));
#1260=DIRECTION('ref_axis',(-1.77825364791595E-16,1.,0.));
#1261=DIRECTION('',(-1.77825364791595E-16,1.,0.));
#1262=DIRECTION('',(0.,0.,1.));
#1263=DIRECTION('center_axis',(0.,0.,-1.));
#1264=DIRECTION('ref_axis',(-1.,0.,0.));
#1265=DIRECTION('',(0.,-1.,0.));
#1266=DIRECTION('',(-1.,0.,0.));
#1267=DIRECTION('center_axis',(0.,1.,0.));
#1268=DIRECTION('ref_axis',(0.,0.,1.));
#1269=DIRECTION('',(-1.,0.,0.));
#1270=DIRECTION('',(0.,0.,-1.));
#1271=DIRECTION('center_axis',(0.,1.,0.));
#1272=DIRECTION('ref_axis',(0.,0.,1.));
#1273=DIRECTION('',(0.,0.,-1.));
#1274=DIRECTION('center_axis',(1.,0.,0.));
#1275=DIRECTION('ref_axis',(0.,-1.,0.));
#1276=DIRECTION('center_axis',(1.,0.,0.));
#1277=DIRECTION('ref_axis',(0.,-1.,0.));
#1278=DIRECTION('',(0.,-1.,0.));
#1279=DIRECTION('center_axis',(0.,0.,-1.));
#1280=DIRECTION('ref_axis',(-1.,0.,0.));
#1281=DIRECTION('center_axis',(-4.73910053999831E-17,1.,0.));
#1282=DIRECTION('ref_axis',(1.,4.7391005399983E-17,0.));
#1283=DIRECTION('',(-1.,-5.07530525542929E-16,0.));
#1284=DIRECTION('',(0.,0.,-1.));
#1285=DIRECTION('center_axis',(0.,0.,-1.));
#1286=DIRECTION('ref_axis',(-1.,0.,0.));
#1287=DIRECTION('',(-1.,1.18477513499958E-17,0.));
#1288=DIRECTION('',(-1.07657990266682E-16,-1.,0.));
#1289=DIRECTION('center_axis',(-1.18477513499958E-17,-1.,0.));
#1290=DIRECTION('ref_axis',(-1.,1.18477513499958E-17,0.));
#1291=DIRECTION('',(0.,0.,-1.));
#1292=DIRECTION('center_axis',(1.,0.,0.));
#1293=DIRECTION('ref_axis',(0.,0.,-1.));
#1294=DIRECTION('center_axis',(0.,0.257662650560332,0.966234939601246));
#1295=DIRECTION('ref_axis',(1.,0.,0.));
#1296=DIRECTION('',(-1.,0.,0.));
#1297=DIRECTION('',(-1.,0.,0.));
#1298=DIRECTION('',(-1.,0.,0.));
#1299=DIRECTION('center_axis',(0.,0.257662650560332,0.966234939601246));
#1300=DIRECTION('ref_axis',(1.01705065257058E-15,0.966234939601246,-0.257662650560332));
#1301=DIRECTION('',(-0.694861581918119,0.694861581918119,-0.185296421844832));
#1302=DIRECTION('center_axis',(-0.257662650560332,0.,0.966234939601246));
#1303=DIRECTION('ref_axis',(0.966234939601246,0.,0.257662650560332));
#1304=DIRECTION('',(-0.69486158191812,-0.694861581918119,-0.185296421844832));
#1305=DIRECTION('',(0.,-1.,0.));
#1306=DIRECTION('',(0.,-1.,0.));
#1307=DIRECTION('',(0.,-1.,0.));
#1308=DIRECTION('',(0.,-1.,0.));
#1309=DIRECTION('',(0.,-1.,0.));
#1310=DIRECTION('center_axis',(0.,-0.257662650560332,0.966234939601246));
#1311=DIRECTION('ref_axis',(1.,0.,0.));
#1312=DIRECTION('',(0.,0.966234939601246,0.257662650560332));
#1313=DIRECTION('',(1.,0.,0.));
#1314=DIRECTION('',(1.,0.,0.));
#1315=DIRECTION('center_axis',(-1.,0.,0.));
#1316=DIRECTION('ref_axis',(0.,1.,0.));
#1317=DIRECTION('',(0.,0.,-1.));
#1318=DIRECTION('',(0.,0.,-1.));
#1319=DIRECTION('center_axis',(-1.,0.,0.));
#1320=DIRECTION('ref_axis',(0.,1.,0.));
#1321=DIRECTION('',(0.,0.,-1.));
#1322=DIRECTION('',(0.,0.,-1.));
#1323=DIRECTION('center_axis',(0.,-1.,0.));
#1324=DIRECTION('ref_axis',(-1.,0.,0.));
#1325=DIRECTION('',(0.,0.,-1.));
#1326=DIRECTION('',(0.,0.,-1.));
#1327=DIRECTION('center_axis',(0.,0.,-1.));
#1328=DIRECTION('ref_axis',(-1.,0.,0.));
#1329=DIRECTION('',(0.,1.,0.));
#1330=DIRECTION('',(-1.,0.,0.));
#1331=DIRECTION('',(1.,0.,0.));
#1332=DIRECTION('center_axis',(0.,0.,-1.));
#1333=DIRECTION('ref_axis',(-1.,0.,0.));
#1334=DIRECTION('',(0.,1.,0.));
#1335=DIRECTION('',(-1.,0.,0.));
#1336=DIRECTION('center_axis',(0.,0.,-1.));
#1337=DIRECTION('ref_axis',(-1.,0.,0.));
#1338=DIRECTION('',(1.,0.,0.));
#1339=DIRECTION('',(0.,1.,0.));
#1340=DIRECTION('center_axis',(0.,0.,-1.));
#1341=DIRECTION('ref_axis',(0.762977473065347,0.646425073457719,0.));
#1342=DIRECTION('center_axis',(0.,0.,1.));
#1343=DIRECTION('ref_axis',(0.762977473065347,0.646425073457719,0.));
#1344=DIRECTION('',(0.,0.,-1.));
#1345=DIRECTION('center_axis',(0.,0.,-1.));
#1346=DIRECTION('ref_axis',(1.,0.,0.));
#1347=DIRECTION('center_axis',(0.,0.,-1.));
#1348=DIRECTION('ref_axis',(0.762977473065344,-0.646425073457722,0.));
#1349=DIRECTION('',(1.,0.,0.));
#1350=DIRECTION('center_axis',(0.,-1.,0.));
#1351=DIRECTION('ref_axis',(-1.,0.,0.));
#1352=DIRECTION('',(0.,0.,-1.));
#1353=DIRECTION('center_axis',(0.,-1.,0.));
#1354=DIRECTION('ref_axis',(-1.,0.,0.));
#1355=DIRECTION('',(0.,0.,-1.));
#1356=DIRECTION('center_axis',(-1.,0.,0.));
#1357=DIRECTION('ref_axis',(0.,1.,0.));
#1358=DIRECTION('',(0.,0.,-1.));
#1359=DIRECTION('',(0.,0.,-1.));
#1360=DIRECTION('center_axis',(0.,1.,0.));
#1361=DIRECTION('ref_axis',(1.,0.,0.));
#1362=DIRECTION('center_axis',(0.,0.,-1.));
#1363=DIRECTION('ref_axis',(0.762977473065344,-0.646425073457722,0.));
#1364=DIRECTION('',(0.,0.,-1.));
#1365=DIRECTION('',(0.,0.,-1.));
#1366=DIRECTION('center_axis',(-1.,0.,0.));
#1367=DIRECTION('ref_axis',(0.,1.,0.));
#1368=DIRECTION('',(0.,0.,-1.));
#1369=DIRECTION('center_axis',(0.,1.,0.));
#1370=DIRECTION('ref_axis',(1.,0.,0.));
#1371=DIRECTION('center_axis',(-1.,0.,0.));
#1372=DIRECTION('ref_axis',(0.,1.,0.));
#1373=DIRECTION('center_axis',(1.,0.,0.));
#1374=DIRECTION('ref_axis',(0.,-1.,0.));
#1375=DIRECTION('',(0.,0.,-1.));
#1376=DIRECTION('center_axis',(0.,1.,0.));
#1377=DIRECTION('ref_axis',(1.,0.,0.));
#1378=DIRECTION('',(0.,0.,-1.));
#1379=DIRECTION('center_axis',(0.,0.,-1.));
#1380=DIRECTION('ref_axis',(0.762977473065345,-0.646425073457722,0.));
#1381=DIRECTION('',(0.,0.,-1.));
#1382=DIRECTION('center_axis',(0.,1.,0.));
#1383=DIRECTION('ref_axis',(1.,0.,0.));
#1384=DIRECTION('center_axis',(0.,1.,0.));
#1385=DIRECTION('ref_axis',(1.,0.,0.));
#1386=DIRECTION('center_axis',(1.18477513499958E-17,-1.,0.));
#1387=DIRECTION('ref_axis',(-1.,-1.18477513499958E-17,0.));
#1388=DIRECTION('',(1.,0.,0.));
#1389=DIRECTION('',(0.,0.,-1.));
#1390=DIRECTION('center_axis',(0.,0.,-1.));
#1391=DIRECTION('ref_axis',(-1.,0.,0.));
#1392=DIRECTION('',(1.,-4.7391005399983E-17,0.));
#1393=DIRECTION('',(1.07657990266682E-16,1.,0.));
#1394=DIRECTION('center_axis',(4.73910053999831E-17,1.,0.));
#1395=DIRECTION('ref_axis',(1.,-4.7391005399983E-17,0.));
#1396=DIRECTION('',(0.,0.,-1.));
#1397=DIRECTION('center_axis',(-1.,0.,0.));
#1398=DIRECTION('ref_axis',(0.,0.,1.));
#1399=CARTESIAN_POINT('',(0.,0.,0.));
#1400=CARTESIAN_POINT('Origin',(115.550000000001,39.0499999999997,0.));
#1401=CARTESIAN_POINT('',(115.550000000001,39.0499999999997,0.));
#1402=CARTESIAN_POINT('',(103.550000000001,39.0499999999997,0.));
#1403=CARTESIAN_POINT('',(115.550000000001,39.0499999999997,0.));
#1404=CARTESIAN_POINT('',(103.550000000001,39.0499999999997,-3.));
#1405=CARTESIAN_POINT('',(103.550000000001,39.0499999999997,-1.50000000000052));
#1406=CARTESIAN_POINT('',(115.550000000001,39.0499999999997,-3.));
#1407=CARTESIAN_POINT('',(115.550000000001,39.0499999999997,-3.));
#1408=CARTESIAN_POINT('',(115.550000000001,39.0499999999997,0.));
#1409=CARTESIAN_POINT('Origin',(115.550000000001,49.0499999999997,0.));
#1410=CARTESIAN_POINT('',(115.550000000001,49.0499999999997,0.));
#1411=CARTESIAN_POINT('',(115.550000000001,49.0499999999997,0.));
#1412=CARTESIAN_POINT('',(115.550000000001,49.0499999999997,-3.));
#1413=CARTESIAN_POINT('',(115.550000000001,49.0499999999997,-3.));
#1414=CARTESIAN_POINT('',(115.550000000001,49.0499999999997,0.));
#1415=CARTESIAN_POINT('Origin',(-113.649999999999,39.0499999999997,0.));
#1416=CARTESIAN_POINT('',(-113.649999999999,39.0499999999997,0.));
#1417=CARTESIAN_POINT('',(-113.649999999999,49.0499999999997,0.));
#1418=CARTESIAN_POINT('',(-113.649999999999,39.0499999999997,0.));
#1419=CARTESIAN_POINT('',(-113.649999999999,49.0499999999997,-3.));
#1420=CARTESIAN_POINT('',(-113.649999999999,49.0499999999997,0.));
#1421=CARTESIAN_POINT('',(-113.649999999999,39.0499999999997,-3.));
#1422=CARTESIAN_POINT('',(-113.649999999999,39.0499999999997,-3.));
#1423=CARTESIAN_POINT('',(-113.649999999999,39.0499999999997,0.));
#1424=CARTESIAN_POINT('Origin',(-101.649999999999,39.0499999999997,0.));
#1425=CARTESIAN_POINT('',(-101.649999999999,39.0499999999997,0.));
#1426=CARTESIAN_POINT('',(115.550000000001,39.0499999999997,0.));
#1427=CARTESIAN_POINT('',(-101.649999999999,39.0499999999997,-3.));
#1428=CARTESIAN_POINT('',(115.550000000001,39.0499999999997,-3.));
#1429=CARTESIAN_POINT('',(-101.649999999999,39.0499999999997,-1.5));
#1430=CARTESIAN_POINT('Origin',(103.550000000001,49.0499999999997,0.));
#1431=CARTESIAN_POINT('',(51.7750000000008,49.0499999999997,-3.));
#1432=CARTESIAN_POINT('',(-113.649999999999,49.0499999999997,0.));
#1433=CARTESIAN_POINT('Origin',(-101.649999999999,-39.95,-3.));
#1434=CARTESIAN_POINT('',(-101.649999999999,-153.65,-2.99999999999885));
#1435=CARTESIAN_POINT('',(-101.649999999999,27.4749996647239,-2.99999999999992));
#1436=CARTESIAN_POINT('',(-101.649999999999,-153.65,0.));
#1437=CARTESIAN_POINT('',(-101.649999999999,-153.65,-2.99999999999885));
#1438=CARTESIAN_POINT('',(-101.649999999999,-8.00000011920929,0.));
#1439=CARTESIAN_POINT('',(-101.649999999999,-19.9750000000002,0.));
#1440=CARTESIAN_POINT('',(-101.649999999999,-8.00000011920929,-1.5));
#1441=CARTESIAN_POINT('',(-101.649999999999,-8.00000011920929,-1.5));
#1442=CARTESIAN_POINT('',(-101.649999999999,8.00000000000004,-1.5));
#1443=CARTESIAN_POINT('',(-101.649999999999,-19.9750000298023,-1.5));
#1444=CARTESIAN_POINT('',(-101.649999999999,8.00000000000004,0.));
#1445=CARTESIAN_POINT('',(-101.649999999999,8.,-1.5));
#1446=CARTESIAN_POINT('',(-101.649999999999,-19.9750000000002,0.));
#1447=CARTESIAN_POINT('Origin',(7.8159700933611E-13,-3.5527136788005E-13,
-3.));
#1448=CARTESIAN_POINT('',(103.550000000001,-153.65,-3.00000000000118));
#1449=CARTESIAN_POINT('',(103.550000000001,27.4749996647239,-2.99999999999992));
#1450=CARTESIAN_POINT('',(115.550000000001,-153.65,-3.00000000000131));
#1451=CARTESIAN_POINT('',(51.7750000000008,-153.65,-3.));
#1452=CARTESIAN_POINT('',(115.550000000001,-163.65,-3.));
#1453=CARTESIAN_POINT('',(115.550000000001,81.8249999999997,-3.));
#1454=CARTESIAN_POINT('',(-113.649999999999,-163.65,-3.));
#1455=CARTESIAN_POINT('',(-163.649999999999,-163.65,-3.));
#1456=CARTESIAN_POINT('',(-113.649999999999,-153.65,-2.99999999999871));
#1457=CARTESIAN_POINT('',(-113.649999999999,-81.8250000000004,-3.));
#1458=CARTESIAN_POINT('',(-56.8249999999992,-153.65,-3.));
#1459=CARTESIAN_POINT('',(37.,-13.,-3.));
#1460=CARTESIAN_POINT('',(37.,-12.,-3.));
#1461=CARTESIAN_POINT('',(37.,-13.,-3.));
#1462=CARTESIAN_POINT('',(38.,-12.,-3.));
#1463=CARTESIAN_POINT('',(37.,-12.,-3.));
#1464=CARTESIAN_POINT('',(38.,-0.5,-3.));
#1465=CARTESIAN_POINT('',(38.,13.,-3.));
#1466=CARTESIAN_POINT('',(37.,-0.5,-3.));
#1467=CARTESIAN_POINT('',(37.,-0.5,-3.));
#1468=CARTESIAN_POINT('',(37.,0.5,-3.));
#1469=CARTESIAN_POINT('',(37.,0.5,-3.));
#1470=CARTESIAN_POINT('',(38.,0.5,-3.));
#1471=CARTESIAN_POINT('',(39.,0.5,-3.));
#1472=CARTESIAN_POINT('',(38.,12.,-3.));
#1473=CARTESIAN_POINT('',(38.,13.,-3.));
#1474=CARTESIAN_POINT('',(37.,12.,-3.));
#1475=CARTESIAN_POINT('',(37.,12.,-3.));
#1476=CARTESIAN_POINT('',(37.,13.,-3.));
#1477=CARTESIAN_POINT('',(37.,13.,-3.));
#1478=CARTESIAN_POINT('',(-42.5000000000037,13.,-3.));
#1479=CARTESIAN_POINT('',(-38.,13.,-3.));
#1480=CARTESIAN_POINT('',(-42.5000000000037,-13.,-3.));
#1481=CARTESIAN_POINT('',(-42.5000000000037,14.9999999999989,-3.));
#1482=CARTESIAN_POINT('',(-41.8958969088396,-13.,-3.));
#1483=CARTESIAN_POINT('',(-38.,-13.,-3.));
#1484=CARTESIAN_POINT('',(-39.2234441590888,7.99999999999887,-3.));
#1485=CARTESIAN_POINT('Origin',(-60.2045454545337,-1.16351372980716E-12,
-3.));
#1486=CARTESIAN_POINT('',(-37.6253460016452,7.99999999999887,-3.));
#1487=CARTESIAN_POINT('',(-37.6253460016452,7.99999999999887,-3.));
#1488=CARTESIAN_POINT('',(-40.0844001286831,-13.,-3.));
#1489=CARTESIAN_POINT('Origin',(-60.2045454545337,-1.16351372980716E-12,
-3.));
#1490=CARTESIAN_POINT('',(-38.,-13.,-3.));
#1491=CARTESIAN_POINT('Origin',(7.8159700933611E-13,-3.5527136788005E-13,
0.));
#1492=CARTESIAN_POINT('',(-70.0000023841858,8.,0.));
#1493=CARTESIAN_POINT('',(-161.,8.00000000000001,0.));
#1494=CARTESIAN_POINT('',(-70.0000023841858,-8.00000011920929,0.));
#1495=CARTESIAN_POINT('',(-70.0000023841858,3.99999999999982,0.));
#1496=CARTESIAN_POINT('',(-34.9712556974766,-8.00000011920929,0.));
#1497=CARTESIAN_POINT('',(-113.649999999999,-153.65,0.));
#1498=CARTESIAN_POINT('',(-56.8249999999992,-153.65,0.));
#1499=CARTESIAN_POINT('',(-113.649999999999,-163.65,0.));
#1500=CARTESIAN_POINT('',(-113.649999999999,-81.8250000000004,0.));
#1501=CARTESIAN_POINT('',(-31.5000005960464,-163.65,0.));
#1502=CARTESIAN_POINT('',(51.8250000000004,-163.65,-1.40165656858926E-14));
#1503=CARTESIAN_POINT('',(-31.5000005960464,-70.0000002032256,0.));
#1504=CARTESIAN_POINT('',(-31.5000005960464,-81.7500000000002,0.));
#1505=CARTESIAN_POINT('',(-9.50000039376038,-70.0000002032257,0.));
#1506=CARTESIAN_POINT('',(-15.7500002980228,-70.0000002235174,0.));
#1507=CARTESIAN_POINT('',(-9.50000039376038,-163.65,0.));
#1508=CARTESIAN_POINT('',(-9.50000039376038,-35.000000101613,0.));
#1509=CARTESIAN_POINT('',(9.50000059604645,-163.65,0.));
#1510=CARTESIAN_POINT('',(81.8250000000008,-163.65,0.));
#1511=CARTESIAN_POINT('',(9.50000059604643,-70.0000002438092,0.));
#1512=CARTESIAN_POINT('',(9.50000059604645,-81.7500000000002,0.));
#1513=CARTESIAN_POINT('',(31.5000003937604,-70.0000002438092,0.));
#1514=CARTESIAN_POINT('',(4.75000029802361,-70.0000002235174,0.));
#1515=CARTESIAN_POINT('',(31.5000003937604,-163.65,0.));
#1516=CARTESIAN_POINT('',(31.5000003937604,-35.0000001219048,0.));
#1517=CARTESIAN_POINT('',(115.550000000001,-163.65,0.));
#1518=CARTESIAN_POINT('',(81.8250000000008,-163.65,0.));
#1519=CARTESIAN_POINT('',(115.550000000001,-153.65,-1.31228361510694E-12));
#1520=CARTESIAN_POINT('',(115.550000000001,81.8249999999997,0.));
#1521=CARTESIAN_POINT('',(103.550000000001,-153.65,-1.17572618307804E-12));
#1522=CARTESIAN_POINT('',(51.7750000000008,-153.65,0.));
#1523=CARTESIAN_POINT('',(103.550000000001,-8.00000011920929,0.));
#1524=CARTESIAN_POINT('',(103.550000000001,19.9749999999998,0.));
#1525=CARTESIAN_POINT('',(70.0000023841858,-8.00000011920929,0.));
#1526=CARTESIAN_POINT('',(81.7500000000004,-8.00000011920929,0.));
#1527=CARTESIAN_POINT('',(70.0000023841858,8.,0.));
#1528=CARTESIAN_POINT('',(70.0000023841858,3.99999999999982,0.));
#1529=CARTESIAN_POINT('',(103.550000000001,8.,0.));
#1530=CARTESIAN_POINT('',(34.9712556974773,8.,0.));
#1531=CARTESIAN_POINT('',(103.550000000001,19.9749999999998,0.));
#1532=CARTESIAN_POINT('',(-43.398268955812,-16.,0.));
#1533=CARTESIAN_POINT('',(-38.4226509145366,7.99999999999886,0.));
#1534=CARTESIAN_POINT('Origin',(-60.2045454545339,1.07469588783715E-12,
0.));
#1535=CARTESIAN_POINT('',(-39.2234441590888,7.99999999999887,0.));
#1536=CARTESIAN_POINT('',(-37.6253460016452,7.99999999999887,0.));
#1537=CARTESIAN_POINT('',(-41.8958969088396,-13.,0.));
#1538=CARTESIAN_POINT('Origin',(-60.2045454545337,-1.16351372980716E-12,
0.));
#1539=CARTESIAN_POINT('',(-42.5000000000037,-13.,0.));
#1540=CARTESIAN_POINT('',(-38.,-13.,0.));
#1541=CARTESIAN_POINT('',(-42.5000000000037,16.,0.));
#1542=CARTESIAN_POINT('',(-42.5000000000037,14.9999999999989,0.));
#1543=CARTESIAN_POINT('',(41.,16.,0.));
#1544=CARTESIAN_POINT('',(18.5000000000004,16.,0.));
#1545=CARTESIAN_POINT('',(41.,-16.,0.));
#1546=CARTESIAN_POINT('',(41.,0.249999999999823,0.));
#1547=CARTESIAN_POINT('',(-20.0422000643411,-16.,0.));
#1548=CARTESIAN_POINT('Origin',(103.550000000001,59.0499999999997,-3.00000000000118));
#1549=CARTESIAN_POINT('',(103.550000000001,8.,-1.5));
#1550=CARTESIAN_POINT('',(103.550000000001,8.,-1.50000000000079));
#1551=CARTESIAN_POINT('',(103.550000000001,-8.00000011920929,-1.5));
#1552=CARTESIAN_POINT('',(103.550000000001,19.9749999701977,-1.5));
#1553=CARTESIAN_POINT('',(103.550000000001,-8.00000011920929,-1.50000000000023));
#1554=CARTESIAN_POINT('',(103.550000000001,-153.65,-3.00000000000118));
#1555=CARTESIAN_POINT('Origin',(163.650000000001,-163.65,0.));
#1556=CARTESIAN_POINT('',(115.550000000001,-163.65,0.));
#1557=CARTESIAN_POINT('',(31.5000003937604,-163.65,-1.5));
#1558=CARTESIAN_POINT('',(31.5000003937604,-163.65,-0.75));
#1559=CARTESIAN_POINT('',(9.50000059604642,-163.65,-1.5));
#1560=CARTESIAN_POINT('',(86.5750002980236,-163.65,-1.5));
#1561=CARTESIAN_POINT('',(9.50000059604644,-163.65,0.));
#1562=CARTESIAN_POINT('',(-9.50000059604642,-163.65,-1.5));
#1563=CARTESIAN_POINT('',(-9.50000039376037,-163.65,-0.75));
#1564=CARTESIAN_POINT('',(-31.5000003937604,-163.65,-1.5));
#1565=CARTESIAN_POINT('',(66.0749998031202,-163.65,-1.5));
#1566=CARTESIAN_POINT('',(-31.5000005960464,-163.65,0.));
#1567=CARTESIAN_POINT('',(-113.649999999999,-163.65,0.));
#1568=CARTESIAN_POINT('Origin',(103.550000000001,-153.65,-3.00000000000118));
#1569=CARTESIAN_POINT('',(115.550000000001,-153.65,-1.50000000000059));
#1570=CARTESIAN_POINT('Origin',(115.550000000001,163.65,0.));
#1571=CARTESIAN_POINT('Origin',(-113.649999999999,-163.65,0.));
#1572=CARTESIAN_POINT('',(-113.649999999999,-153.65,-1.49999999999936));
#1573=CARTESIAN_POINT('Origin',(-113.649999999999,-153.65,-2.99999999999871));
#1574=CARTESIAN_POINT('Origin',(-31.5000005960464,-163.65,0.));
#1575=CARTESIAN_POINT('',(-31.5000005960464,-70.,-1.5));
#1576=CARTESIAN_POINT('',(-31.5000005960464,-163.65,-1.5));
#1577=CARTESIAN_POINT('',(-31.5000005960464,-70.,-3.));
#1578=CARTESIAN_POINT('Origin',(9.50000059604645,-163.65,0.));
#1579=CARTESIAN_POINT('',(9.50000059604645,-70.,-1.5));
#1580=CARTESIAN_POINT('',(9.50000059604645,-163.65,-1.5));
#1581=CARTESIAN_POINT('',(9.50000039376037,-70.,-3.));
#1582=CARTESIAN_POINT('Origin',(-20.5000004949034,-116.825000101613,-1.5));
#1583=CARTESIAN_POINT('',(-9.50000039376038,-70.,-1.5));
#1584=CARTESIAN_POINT('',(-9.50000059604642,-163.5,-1.5));
#1585=CARTESIAN_POINT('',(-26.0000005454749,-70.,-1.5));
#1586=CARTESIAN_POINT('Origin',(31.5000005960464,-70.,-3.));
#1587=CARTESIAN_POINT('',(31.5000003937604,-70.,-1.5));
#1588=CARTESIAN_POINT('',(26.0000005454749,-70.,-1.5));
#1589=CARTESIAN_POINT('',(31.5000003937604,-70.,-1.5));
#1590=CARTESIAN_POINT('Origin',(-31.5000005960464,-70.,-3.));
#1591=CARTESIAN_POINT('',(-9.50000039376038,-70.,-1.5));
#1592=CARTESIAN_POINT('Origin',(-9.50000039376038,-70.0000002032257,0.));
#1593=CARTESIAN_POINT('Origin',(31.5000003937604,-70.0000002438092,0.));
#1594=CARTESIAN_POINT('',(31.5000003937604,-70.0000002438092,-1.5));
#1595=CARTESIAN_POINT('Origin',(20.5000004949034,-116.825000111759,-1.5));
#1596=CARTESIAN_POINT('Origin',(-163.650000000001,8.,0.));
#1597=CARTESIAN_POINT('',(-70.0000023841858,8.,-1.5));
#1598=CARTESIAN_POINT('',(-138.898127848739,8.00000000000002,-1.5));
#1599=CARTESIAN_POINT('',(-70.,8.,-2.25));
#1600=CARTESIAN_POINT('Origin',(-116.796255697477,-5.9604644553346E-8,-1.5));
#1601=CARTESIAN_POINT('',(-70.0000023841858,-8.00000011920929,-1.5));
#1602=CARTESIAN_POINT('',(-93.3693835462156,-8.00000011920929,-1.5));
#1603=CARTESIAN_POINT('',(-70.,-85.8250000596048,-1.5));
#1604=CARTESIAN_POINT('Origin',(-69.9425113949539,-8.00000011920929,0.));
#1605=CARTESIAN_POINT('',(-70.0000023841858,-8.00000011920929,-1.5));
#1606=CARTESIAN_POINT('Origin',(-70.0000023841858,8.,-3.));
#1607=CARTESIAN_POINT('Origin',(-20.0422000643411,-14.5,-0.4));
#1608=CARTESIAN_POINT('',(38.,-13.,-0.8));
#1609=CARTESIAN_POINT('',(37.,-13.,-0.8));
#1610=CARTESIAN_POINT('',(-38.,-13.,-0.8));
#1611=CARTESIAN_POINT('',(-40.0844001286831,-13.,-0.8));
#1612=CARTESIAN_POINT('',(-20.0422000643411,-13.,-0.8));
#1613=CARTESIAN_POINT('',(-40.9834390932575,-13.,-0.8));
#1614=CARTESIAN_POINT('',(-38.,-13.,-0.8));
#1615=CARTESIAN_POINT('Origin',(-60.2045454545339,1.07469588783715E-12,
-4.26666666666695));
#1616=CARTESIAN_POINT('',(41.,-16.,0.));
#1617=CARTESIAN_POINT('Origin',(39.5,0.249999999999823,-0.4));
#1618=CARTESIAN_POINT('',(38.,13.,-0.8));
#1619=CARTESIAN_POINT('',(41.,16.,0.));
#1620=CARTESIAN_POINT('',(38.,12.,-0.8));
#1621=CARTESIAN_POINT('',(38.,-13.,-0.8));
#1622=CARTESIAN_POINT('',(38.,0.5,-0.8));
#1623=CARTESIAN_POINT('',(38.,0.249999999999823,-0.8));
#1624=CARTESIAN_POINT('',(38.,-0.5,-0.8));
#1625=CARTESIAN_POINT('',(38.,-13.,-0.8));
#1626=CARTESIAN_POINT('',(38.,-12.,-0.8));
#1627=CARTESIAN_POINT('',(38.,0.249999999999823,-0.8));
#1628=CARTESIAN_POINT('',(38.,-13.,-0.8));
#1629=CARTESIAN_POINT('Origin',(18.5000000000004,14.5,-0.4));
#1630=CARTESIAN_POINT('',(-42.5000000000037,13.,-0.8));
#1631=CARTESIAN_POINT('',(-42.5000000000037,13.8495850622407,-0.573443983402489));
#1632=CARTESIAN_POINT('',(37.,13.,-0.8));
#1633=CARTESIAN_POINT('',(18.5000000000004,13.,-0.8));
#1634=CARTESIAN_POINT('',(38.,13.,-0.8));
#1635=CARTESIAN_POINT('Origin',(38.,0.5,0.));
#1636=CARTESIAN_POINT('',(38.,12.,0.));
#1637=CARTESIAN_POINT('',(38.,0.5,0.));
#1638=CARTESIAN_POINT('Origin',(38.,0.5,0.));
#1639=CARTESIAN_POINT('',(38.,-0.5,0.));
#1640=CARTESIAN_POINT('',(38.,-12.,0.));
#1641=CARTESIAN_POINT('Origin',(37.,13.,0.));
#1642=CARTESIAN_POINT('',(-42.5000000000037,13.,0.));
#1643=CARTESIAN_POINT('',(37.,13.,0.));
#1644=CARTESIAN_POINT('Origin',(37.5,0.,-0.8));
#1645=CARTESIAN_POINT('',(37.,-0.5,-0.8));
#1646=CARTESIAN_POINT('',(37.,0.5,-0.8));
#1647=CARTESIAN_POINT('',(37.,-0.25,-0.8));
#1648=CARTESIAN_POINT('',(37.75,-0.5,-0.8));
#1649=CARTESIAN_POINT('',(37.25,0.5,-0.8));
#1650=CARTESIAN_POINT('Origin',(37.5,12.5,-0.8));
#1651=CARTESIAN_POINT('',(37.,12.,-0.8));
#1652=CARTESIAN_POINT('',(37.,12.25,-0.8));
#1653=CARTESIAN_POINT('',(37.75,12.,-0.8));
#1654=CARTESIAN_POINT('Origin',(37.5,-12.5,-0.8));
#1655=CARTESIAN_POINT('',(37.,-12.,-0.8));
#1656=CARTESIAN_POINT('',(37.25,-12.,-0.8));
#1657=CARTESIAN_POINT('',(37.,-12.75,-0.8));
#1658=CARTESIAN_POINT('Origin',(-60.2045454545339,1.07469588783715E-12,
0.));
#1659=CARTESIAN_POINT('',(-38.4226509145366,7.99999999999886,-0.8));
#1660=CARTESIAN_POINT('Origin',(-60.2045454545339,1.07469588783715E-12,
-0.8));
#1661=CARTESIAN_POINT('',(-38.4226509145366,7.99999999999887,0.));
#1662=CARTESIAN_POINT('Origin',(-38.6167195466288,-2.50000000000057,-0.8));
#1663=CARTESIAN_POINT('',(-37.6253460016452,7.99999999999885,-0.8));
#1664=CARTESIAN_POINT('Origin',(-60.2045454545337,-1.16351372980716E-12,
-0.8));
#1665=CARTESIAN_POINT('',(-38.9200818528588,7.99999999999887,-0.8));
#1666=CARTESIAN_POINT('Origin',(38.,-0.5,0.));
#1667=CARTESIAN_POINT('',(37.,-0.5,0.));
#1668=CARTESIAN_POINT('Origin',(38.,12.,0.));
#1669=CARTESIAN_POINT('',(37.,12.,0.));
#1670=CARTESIAN_POINT('Origin',(37.,-13.,0.));
#1671=CARTESIAN_POINT('',(37.,-12.,0.));
#1672=CARTESIAN_POINT('',(37.,-13.,0.));
#1673=CARTESIAN_POINT('Origin',(37.,-12.,0.));
#1674=CARTESIAN_POINT('Origin',(-60.2045454545337,-1.16351372980716E-12,
0.));
#1675=CARTESIAN_POINT('',(-40.0844001286831,-13.,0.));
#1676=CARTESIAN_POINT('',(-37.6253460016452,7.99999999999886,0.));
#1677=CARTESIAN_POINT('Origin',(37.,-0.5,0.));
#1678=CARTESIAN_POINT('',(37.,0.5,0.));
#1679=CARTESIAN_POINT('Origin',(37.,0.5,0.));
#1680=CARTESIAN_POINT('Origin',(37.,12.,0.));
#1681=CARTESIAN_POINT('Origin',(-42.5000000000037,13.,0.));
#1682=CARTESIAN_POINT('',(-42.5000000000037,-13.,0.));
#1683=CARTESIAN_POINT('Origin',(-42.5000000000037,-13.,0.));
#1684=CARTESIAN_POINT('',(-41.8958969088396,-13.,0.));
#1685=CARTESIAN_POINT('Origin',(-60.2045454545337,-1.16351372980716E-12,
0.));
#1686=CARTESIAN_POINT('',(-39.2234441590888,7.99999999999887,0.));
#1687=CARTESIAN_POINT('Origin',(-39.2234441590888,7.99999999999887,0.));
#1688=CARTESIAN_POINT('Origin',(-40.0844001286831,-13.,0.));
#1689=CARTESIAN_POINT('Origin',(163.650000000001,-8.00000011920929,0.));
#1690=CARTESIAN_POINT('',(70.0000023841858,-8.00000011920929,-1.5));
#1691=CARTESIAN_POINT('',(163.5,-8.00000011920929,-1.5));
#1692=CARTESIAN_POINT('',(70.,-8.00000011920929,-1.));
#1693=CARTESIAN_POINT('Origin',(116.796255697477,-5.9604644553346E-8,-1.5));
#1694=CARTESIAN_POINT('',(70.0000023841858,8.,-1.5));
#1695=CARTESIAN_POINT('',(69.9425113949539,8.,-1.5));
#1696=CARTESIAN_POINT('',(70.,-77.8250000000002,-1.5));
#1697=CARTESIAN_POINT('Origin',(69.9425113949539,8.,0.));
#1698=CARTESIAN_POINT('',(70.0000023841858,8.,-1.5));
#1699=CARTESIAN_POINT('Origin',(70.0000023841858,8.,-3.));
#1700=UNCERTAINTY_MEASURE_WITH_UNIT(LENGTH_MEASURE(0.01),#1704,
'DISTANCE_ACCURACY_VALUE',
'Maximum model space distance between geometric entities at asserted c
onnectivities');
#1701=UNCERTAINTY_MEASURE_WITH_UNIT(LENGTH_MEASURE(0.01),#1704,
'DISTANCE_ACCURACY_VALUE',
'Maximum model space distance between geometric entities at asserted c
onnectivities');
#1702=(
GEOMETRIC_REPRESENTATION_CONTEXT(3)
GLOBAL_UNCERTAINTY_ASSIGNED_CONTEXT((#1700))
GLOBAL_UNIT_ASSIGNED_CONTEXT((#1704,#1705,#1706))
REPRESENTATION_CONTEXT('','3D')
);
#1703=(
GEOMETRIC_REPRESENTATION_CONTEXT(3)
GLOBAL_UNCERTAINTY_ASSIGNED_CONTEXT((#1701))
GLOBAL_UNIT_ASSIGNED_CONTEXT((#1704,#1705,#1706))
REPRESENTATION_CONTEXT('','3D')
);
#1704=(
LENGTH_UNIT()
NAMED_UNIT(*)
SI_UNIT(.MILLI.,.METRE.)
);
#1705=(
NAMED_UNIT(*)
PLANE_ANGLE_UNIT()
SI_UNIT($,.RADIAN.)
);
#1706=(
NAMED_UNIT(*)
SI_UNIT($,.STERADIAN.)
SOLID_ANGLE_UNIT()
);
#1707=SHAPE_DEFINITION_REPRESENTATION(#1708,#1709);
#1708=PRODUCT_DEFINITION_SHAPE('',$,#1711);
#1709=SHAPE_REPRESENTATION('',(#1071),#1702);
#1710=PRODUCT_DEFINITION_CONTEXT('part definition',#1715,'design');
#1711=PRODUCT_DEFINITION('2026-09-17-15-26-10-076','Mask_layer',#1712,#1710);
#1712=PRODUCT_DEFINITION_FORMATION('',$,#1717);
#1713=PRODUCT_RELATED_PRODUCT_CATEGORY('Mask_layer','Mask_layer',(#1717));
#1714=APPLICATION_PROTOCOL_DEFINITION('international standard',
'automotive_design',2009,#1715);
#1715=APPLICATION_CONTEXT(
'Core Data for Automotive Mechanical Design Process');
#1716=PRODUCT_CONTEXT('part definition',#1715,'mechanical');
#1717=PRODUCT('2026-09-17-15-26-10-076','Mask_layer',$,(#1716));
#1718=PRESENTATION_STYLE_ASSIGNMENT((#1719));
#1719=SURFACE_STYLE_USAGE(.BOTH.,#1720);
#1720=SURFACE_SIDE_STYLE('',(#1721));
#1721=SURFACE_STYLE_FILL_AREA(#1722);
#1722=FILL_AREA_STYLE('Steel - Satin',(#1723));
#1723=FILL_AREA_STYLE_COLOUR('Steel - Satin',#1724);
#1724=COLOUR_RGB('Steel - Satin',0.627450980392157,0.627450980392157,0.627450980392157);
ENDSEC;
END-ISO-10303-21;
